<svg width="1476" height="221" viewBox="0 0 1476 221" fill="none" xmlns="http://www.w3.org/2000/svg">
<path d="M1432.13 98.047V78.0034C1432.13 74.5658 1433.8 72.0921 1437.11 72.0921C1440.43 72.0921 1442.09 74.5476 1442.09 78.0034V98.047H1432.13ZM1436.89 184.751C1460.83 184.751 1476 171.473 1476 146.992V131.241H1442.09V150.429C1442.09 153.631 1440.43 156.213 1437.11 156.213C1433.8 156.213 1432.13 153.631 1432.13 150.429V123.856H1476V83.0234C1476 57.5596 1460.82 43.791 1436.89 43.791C1412.96 43.791 1398.12 57.8143 1398.12 83.0234V147.101C1398.12 170.473 1412.81 184.733 1436.89 184.733M1334.46 184.751C1344.77 184.751 1352.84 177.985 1356.99 166.672V182.296H1389.11V46.2646H1355.2V149.084C1355.2 153.994 1352.71 155.595 1350.47 155.595C1348.1 155.595 1346.09 154.122 1346.09 149.938V46.2646H1312.18V157.432C1312.18 175.766 1320 184.733 1334.46 184.733M1258.71 150.429V78.1125C1258.71 74.784 1260.37 71.9648 1263.56 71.9648C1267 71.9648 1268.42 74.8022 1268.42 78.1125V150.429C1268.42 153.758 1266.88 156.577 1263.56 156.577C1260.25 156.577 1258.71 153.74 1258.71 150.429ZM1247.08 184.751C1257.04 184.751 1264.51 179.585 1268.42 170.109V220.4H1302.33V46.2646H1268.42V59.1784C1264.86 50.448 1257.52 43.8092 1247.08 43.8092C1232.97 43.8092 1223.86 53.0307 1223.86 75.0387V155.831C1223.86 176.366 1234.06 184.733 1247.08 184.733M1178.82 22.8926C1178.82 33.9511 1186.76 42.2086 1197.43 42.2086C1208.11 42.2086 1216.16 33.9693 1216.16 22.8926C1216.16 11.8159 1208.22 3.46739 1197.43 3.46739C1186.65 3.46739 1178.82 11.4521 1178.82 22.8926ZM1180.46 182.277H1214.37V46.2646H1180.46V182.277ZM1101.04 182.277H1134.95V82.9142C1134.95 79.222 1136.62 77.385 1138.98 77.385C1141.12 77.385 1142.3 78.7309 1142.3 81.5683V118.836H1173.59V70.6189C1173.59 52.667 1167.79 44.5549 1156.04 44.5549C1145.96 44.5549 1137.67 51.6848 1133.28 65.0896V46.2646H1101.04V182.277ZM1037.74 188.316V220.418H1071.4V188.316C1071.4 181.804 1073.89 179.094 1082.55 179.094L1094.64 46.2646H1060.51L1054.46 151.903H1054.23L1048.06 46.2646H1013.68L1026.36 179.094C1034.05 179.094 1037.74 181.804 1037.74 188.316ZM950.496 182.277H1016.17V150.302H986.069V5.92282H950.514V182.277H950.496ZM788.325 97.3012C789.868 84.0237 797.565 75.8935 810.959 75.8935C824.354 75.8935 831.472 84.9877 831.822 97.3012H788.308H788.325ZM774.808 36.1883H842.85L858.383 1.86681H781.804L774.808 36.1883ZM810.135 186.843C864.309 186.843 905.685 168.763 911.61 134.333H832.191C830.648 145.282 822.355 151.43 811.205 151.43C795.075 151.43 788.676 140.244 787.975 125.602H912.206V119.091C912.206 68.2908 871.304 41.7357 811.327 41.7357C746.477 41.7357 709.134 70.146 709.134 115.399C709.134 160.651 750.036 186.861 810.135 186.861M652.47 185.479C673.929 185.479 689.34 181.168 698.702 176.257V140.59C693.372 142.317 687.446 143.663 680.679 143.663C669.301 143.663 662.183 139.244 662.183 125.457V86.2245H698.93V46.2646H662.183V3.23094L585.253 18.9821V46.2828H558.341V86.2427H585.253V135.442C585.253 173.438 617.739 185.497 652.47 185.497M439.088 36.1883H491.965L507.025 17.9817L521.962 36.1883H574.12L548.383 0.757322C520.402 3.21275 492.789 3.21275 464.808 0.757322L439.088 36.1701V36.1883ZM467.42 182.277H544.35V46.2646H467.42V182.277ZM331.214 135.551C331.214 127.185 336.421 123.256 350.78 120.31L368.68 117.108V132.114C368.68 143.918 358.126 148.72 348.413 148.72C338.7 148.72 331.232 144.3 331.232 135.57M308.458 186.843C333.949 186.843 355.987 179.585 370.696 163.107C371.643 170.364 372.94 176.639 374.378 182.296H450.835C447.521 169.382 445.628 159.906 445.628 146.883V100.157C445.628 57.1049 404.13 41.7357 352.445 41.7357C300.761 41.7357 260.332 56.8685 257.247 90.6807H336.316C337.263 80.9681 343.189 75.9299 353.497 75.9299C362.737 75.9299 368.662 80.7316 368.662 90.1896V94.864L315.558 98.92C268.73 102.485 251.777 116.381 251.777 143.445C251.777 170.509 273.359 186.861 308.44 186.861M97.0921 187.952C125.669 187.952 150.565 179.967 164.432 163.234V182.296H236.156V85.5152H109.768V124.002H155.772C153.159 135.57 142.851 144.173 126.02 144.173C101.002 144.173 87.1339 126.712 87.1339 93.6272C87.1339 58.2144 99.7044 41.8449 122.689 41.8449C138.345 41.8449 148.408 51.0664 149.478 66.5629H235.893C231.983 25.2389 188.609 0.393555 120.673 0.393555C48.248 0.393555 0 33.1144 0 97.7923C0 156.941 35.923 187.934 97.0921 187.934" fill="#242627"/>
</svg>
