<svg width="828" height="151" viewBox="0 0 828 151" fill="none" xmlns="http://www.w3.org/2000/svg">
<g clip-path="url(#clip0_407_2801)">
<path d="M799.146 109.316V108.706C799.146 104.816 800.646 102.416 804.056 102.416C807.176 102.416 808.596 104.806 808.596 108.456V109.306H799.146V109.316ZM804.056 138.446C817.326 138.446 826.566 132.196 827.176 121.526H808.596C808.596 124.816 807.096 126.836 804.096 126.836C800.366 126.836 799.106 124.036 799.106 120.346V118.476H827.256V112.836C827.256 98.6759 818.376 91.1359 804.016 91.1359C789.656 91.1359 780.566 98.8059 780.566 113.406V116.606C780.566 131.206 789.976 138.426 804.056 138.426M745.236 138.406C751.846 138.406 756.436 134.636 758.746 129.526V137.236H776.316V92.3759H758.026V120.566C758.026 123.726 755.996 125.066 754.216 125.066C752.436 125.066 750.886 123.926 750.886 120.846V92.3659H732.596V125.226C732.596 133.906 737.176 138.406 745.256 138.406M700.246 118.526V110.816C700.246 105.746 701.666 103.276 704.706 103.276C707.746 103.276 709.206 105.746 709.206 110.816V118.526C709.206 123.556 707.786 126.116 704.706 126.116C701.626 126.116 700.246 123.556 700.246 118.526ZM696.116 138.446C701.546 138.446 706.216 135.486 708.856 131.346V150.366H727.186V137.226H727.226V92.3659H708.846V98.4459C706.536 94.2659 701.786 91.1459 696.356 91.1459C687.066 91.1459 681.306 97.3559 681.306 110.576V119.336C681.306 132.396 686.656 138.446 696.116 138.446ZM649.586 119.096V110.376C649.586 105.426 651.086 102.916 654.336 102.916C657.586 102.916 659.126 105.426 659.126 110.376V119.096C659.126 124.166 657.626 126.686 654.336 126.686C651.046 126.686 649.586 124.166 649.586 119.096ZM654.326 138.446C668.116 138.446 678.096 131.346 678.096 116.586V112.776C678.096 98.1359 667.956 91.1559 654.326 91.1559C640.696 91.1559 630.596 98.1359 630.596 112.776V116.586C630.596 131.356 640.576 138.446 654.326 138.446ZM599.446 118.446V111.346C599.446 106.196 600.866 103.436 603.986 103.436C607.106 103.436 608.406 106.196 608.406 111.346V118.446C608.406 123.636 607.026 126.276 603.986 126.276C600.946 126.276 599.446 123.636 599.446 118.446ZM612.466 138.446C621.436 138.446 627.396 132.236 627.396 119.056V110.216C627.396 97.2359 621.676 91.1559 612.636 91.1559C607.196 91.1559 602.416 94.1959 599.816 98.2959V92.3759H581.476V150.386H599.816V131.076C602.086 135.296 606.836 138.456 612.476 138.456M548.946 109.316V108.706C548.946 104.816 550.446 102.416 553.856 102.416C556.976 102.416 558.396 104.806 558.396 108.456V109.306H548.946V109.316ZM545.456 89.1559H561.436L565.936 78.7659H547.966L545.446 89.1559H545.456ZM553.856 138.446C567.116 138.446 576.366 132.196 576.976 121.526H558.396C558.396 124.816 556.896 126.836 553.896 126.836C550.166 126.836 548.906 124.036 548.906 120.346V118.476H577.056V112.836C577.056 98.6759 568.176 91.1359 553.816 91.1359C539.456 91.1359 530.366 98.8059 530.366 113.406V116.606C530.366 131.206 539.776 138.426 553.856 138.426M512.436 101.696H526.716L532.556 79.1059H515.516L512.436 101.696ZM490.006 137.226H508.306V79.0559H490.006V137.226ZM442.826 109.316V108.706C442.826 104.816 444.326 102.416 447.736 102.416C450.856 102.416 452.276 104.806 452.276 108.456V109.306H442.826V109.316ZM447.736 138.446C460.996 138.446 470.246 132.196 470.856 121.526H452.276C452.276 124.816 450.776 126.836 447.776 126.836C444.046 126.836 442.786 124.036 442.786 120.346V118.476H470.936V112.836C470.936 98.6759 462.056 91.1359 447.696 91.1359C433.336 91.1359 424.246 98.8059 424.246 113.406V116.606C424.246 131.206 433.656 138.426 447.736 138.426M393.016 118.526V110.816C393.016 105.746 394.436 103.276 397.476 103.276C400.516 103.276 401.976 105.746 401.976 110.816V118.526C401.976 123.556 400.556 126.116 397.476 126.116C394.396 126.116 393.016 123.556 393.016 118.526ZM388.876 138.446C394.316 138.446 398.976 135.486 401.616 131.346V137.226H419.996V92.3659H419.956V79.0559H401.626V98.4459C399.316 94.2659 394.566 91.1459 389.136 91.1459C379.846 91.1459 374.086 97.3559 374.086 110.576V119.336C374.086 132.396 379.446 138.446 388.896 138.446M327.946 109.316V108.706C327.946 104.816 329.446 102.416 332.856 102.416C335.976 102.416 337.396 104.806 337.396 108.456V109.306H327.946V109.316ZM332.856 138.446C346.116 138.446 355.366 132.196 355.976 121.526H337.396C337.396 124.816 335.896 126.836 332.896 126.836C329.166 126.836 327.906 124.036 327.906 120.346V118.476H356.056V112.836C356.056 98.6759 347.176 91.1359 332.816 91.1359C318.456 91.1359 309.366 98.8059 309.366 113.406V116.606C309.366 131.206 318.776 138.426 332.856 138.426M274.036 138.406C280.646 138.406 285.236 134.636 287.546 129.526V137.236H305.106V92.3759H286.816V120.566C286.816 123.726 284.786 125.066 283.006 125.066C281.226 125.066 279.676 123.926 279.676 120.846V92.3659H261.386V125.226C261.386 133.906 265.966 138.406 274.046 138.406M229.056 118.526V110.816C229.056 105.746 230.476 103.276 233.516 103.276C236.556 103.276 238.016 105.746 238.016 110.816V118.526C238.016 123.556 236.596 126.116 233.516 126.116C230.436 126.116 229.056 123.556 229.056 118.526ZM224.916 138.446C230.356 138.446 235.016 135.486 237.656 131.346V150.366H255.996V137.226H256.036V92.3659H237.656V98.4459C235.346 94.2659 230.596 91.1459 225.166 91.1459C215.876 91.1459 210.116 97.3559 210.116 110.576V119.336C210.116 132.396 215.466 138.446 224.926 138.446M186.496 83.1159C186.496 87.5359 190.876 90.4559 196.436 90.4559C201.996 90.4559 206.376 87.5359 206.376 83.1159C206.376 78.6959 202.036 75.7759 196.436 75.7759C190.836 75.7759 186.496 78.6959 186.496 83.1159ZM187.266 137.226H205.556V92.3659H187.266V137.226ZM143.946 137.226H162.236V109.606C162.236 107.576 163.286 106.606 164.626 106.606C165.886 106.606 166.696 107.376 166.696 109.286V118.616H183.246V103.976C183.246 95.3359 180.086 91.2759 173.956 91.2759C168.356 91.2759 163.736 95.0459 161.466 101.136V92.3759H143.946V137.236V137.226ZM111.456 118.446V111.346C111.456 106.196 112.876 103.436 115.996 103.436C119.116 103.436 120.416 106.196 120.416 111.346V118.446C120.416 123.636 119.036 126.276 115.996 126.276C112.956 126.276 111.456 123.636 111.456 118.446ZM124.476 138.446C133.436 138.446 139.406 132.236 139.406 119.056V110.216C139.406 97.2359 133.686 91.1559 124.646 91.1559C119.206 91.1559 114.426 94.1959 111.826 98.2959V79.0659H93.4957V137.236H111.826V131.066C114.096 135.286 118.846 138.446 124.486 138.446M62.3757 122.176V121.566C62.3757 118.276 63.6757 116.896 67.4857 115.726L69.7157 115.076V122.946C69.7157 125.626 67.9757 126.756 66.1857 126.756C63.9957 126.756 62.3757 125.376 62.3757 122.176ZM57.0557 138.406C62.9357 138.406 67.6057 135.646 70.3657 131.226C70.5257 133.336 70.8557 135.326 71.2157 137.226H89.3857C88.5357 133.616 88.0057 130.576 88.0057 126.966V107.046C88.0057 96.3759 79.5257 91.1859 66.9557 91.1859C54.3857 91.1859 45.3357 96.0959 44.9257 106.476V106.556H63.5057V105.906C63.5057 103.146 64.5157 101.726 66.7557 101.726C68.7857 101.726 69.7157 102.906 69.7157 105.256V108.016L60.0657 109.236C48.3857 110.776 43.5557 114.506 43.5557 123.876V124.156C43.5557 133.846 49.1557 138.396 57.0657 138.396M1.88574 137.226H21.4357V115.806H40.2557V102.336H21.4357V92.3959H43.2157V79.0459H1.88574V137.216V137.226Z" fill="#242627"/>
<path d="M490.976 32.7559V26.1459C490.976 25.0059 491.546 24.1959 492.676 24.1959C493.806 24.1959 494.376 25.0059 494.376 26.1459V32.7559H490.966H490.976ZM492.596 61.3559C500.786 61.3559 505.986 56.9759 505.986 48.9059V43.7159H494.386V50.0459C494.386 51.0959 493.816 51.9559 492.686 51.9559C491.556 51.9559 490.986 51.1059 490.986 50.0459V41.2859H505.996V27.8159C505.996 19.4159 500.806 14.8759 492.606 14.8759C484.406 14.8759 479.346 19.4959 479.346 27.8159V48.9559C479.346 56.6659 484.376 61.3659 492.606 61.3659M457.556 61.3559C461.086 61.3559 463.846 59.1259 465.266 55.3959V60.5459H476.256V15.6759H464.656V49.5859C464.656 51.2059 463.806 51.7359 463.036 51.7359C462.226 51.7359 461.536 51.2459 461.536 49.8659V15.6759H449.936V52.3459C449.936 58.3859 452.616 61.3459 457.566 61.3459M431.636 50.0359V26.1859C431.636 25.0859 432.206 24.1559 433.296 24.1559C434.476 24.1559 434.956 25.0859 434.956 26.1859V50.0359C434.956 51.1359 434.426 52.0659 433.296 52.0659C432.166 52.0659 431.636 51.1359 431.636 50.0359ZM427.656 61.3559C431.066 61.3559 433.616 59.6559 434.956 56.5259V73.1159H446.556V15.6759H434.956V19.9359C433.736 17.0559 431.226 14.8659 427.656 14.8659C422.826 14.8659 419.706 17.9059 419.706 25.1659V51.8159C419.706 58.5859 423.196 61.3459 427.656 61.3459M404.286 7.9659C404.286 11.6159 407.006 14.3359 410.656 14.3359C414.306 14.3359 417.066 11.6159 417.066 7.9659C417.066 4.3159 414.346 1.5559 410.656 1.5559C406.966 1.5559 404.286 4.1959 404.286 7.9659ZM404.856 60.5359H416.456V15.6759H404.856V60.5359ZM377.676 60.5359H389.276V27.7659C389.276 26.5459 389.846 25.9359 390.656 25.9359C391.386 25.9359 391.796 26.3859 391.796 27.3159V39.6059H402.506V23.7059C402.506 17.7859 400.516 15.1059 396.506 15.1059C393.056 15.1059 390.216 17.4559 388.716 21.8759V15.6659H377.686V60.5259L377.676 60.5359ZM356.016 62.5259V73.1159H367.536V62.5259C367.536 60.3759 368.386 59.4859 371.346 59.4859L375.486 15.6759H363.806L361.736 50.5159H361.656L359.546 15.6759H347.786L352.126 59.4859C354.766 59.4859 356.016 60.3759 356.016 62.5259ZM326.166 60.5359H348.636V49.9859H338.336V2.3659H326.166V60.5359ZM270.666 32.5059C271.196 28.1259 273.826 25.4459 278.416 25.4459C283.006 25.4459 285.436 28.4459 285.556 32.5059H270.666ZM266.046 12.3459H289.326L294.636 1.0259H268.426L266.036 12.3459H266.046ZM278.136 62.0459C296.676 62.0459 310.836 56.0859 312.856 44.7259H285.676C285.146 48.3359 282.306 50.3659 278.496 50.3659C272.976 50.3659 270.786 46.6759 270.546 41.8459H313.056V39.6959C313.056 22.9459 299.066 14.1859 278.536 14.1859C256.346 14.1859 243.566 23.5559 243.566 38.4859C243.566 53.4159 257.566 62.0559 278.126 62.0559M224.186 61.5959C231.526 61.5959 236.806 60.1759 240.006 58.5559V46.7959C238.176 47.3659 236.156 47.8059 233.836 47.8059C229.936 47.8059 227.506 46.3459 227.506 41.8059V28.8659H240.086V15.6859H227.506V1.4759L201.176 6.6659V15.6759H191.966V28.8559H201.176V45.0859C201.176 57.6159 212.296 61.5959 224.176 61.5959M151.166 12.3459H169.256L174.406 6.3459L179.516 12.3459H197.366L188.566 0.665898C178.996 1.4759 169.546 1.4759 159.966 0.665898L151.166 12.3459ZM160.866 60.5359H187.196V15.6759H160.866V60.5359ZM114.256 45.1259C114.256 42.3659 116.046 41.0659 120.946 40.0959L127.076 39.0459V43.9959C127.076 47.8859 123.466 49.4759 120.136 49.4759C116.806 49.4759 114.256 48.0159 114.256 45.1359M106.466 62.0459C115.186 62.0459 122.736 59.6559 127.766 54.2159C128.086 56.6059 128.536 58.6759 129.026 60.5459H155.186C154.046 56.2859 153.406 53.1659 153.406 48.8659V33.4559C153.406 19.2559 139.206 14.1859 121.526 14.1859C103.846 14.1859 90.006 19.1759 88.956 30.3259H116.016C116.336 27.1259 118.366 25.4559 121.896 25.4559C125.056 25.4559 127.086 27.0359 127.086 30.1559V31.6959L108.916 33.0359C92.896 34.2159 87.096 38.7959 87.096 47.7259C87.096 56.6559 94.476 62.0459 106.486 62.0459M34.136 62.4059C43.916 62.4059 52.436 59.7659 57.176 54.2559V60.5459H81.716V28.6259H38.476V41.3259H54.216C53.326 45.1359 49.796 47.9759 44.036 47.9759C35.476 47.9759 30.736 42.2159 30.736 31.3059C30.736 19.6259 35.036 14.2259 42.906 14.2259C48.256 14.2259 51.706 17.2659 52.076 22.3759H81.646C80.296 8.7359 65.456 0.545898 42.206 0.545898C17.426 0.545898 0.916016 11.3359 0.916016 32.6759C0.916016 52.1859 13.206 62.4059 34.136 62.4059Z" fill="#242627"/>
</g>
<defs>
<clipPath id="clip0_407_2801">
<rect width="826.34" height="149.82" fill="white" transform="translate(0.916016 0.545898)"/>
</clipPath>
</defs>
</svg>
