<svg width="792" height="116" viewBox="0 0 792 116" fill="none" xmlns="http://www.w3.org/2000/svg">
<path d="M0.00999451 59.81C0.00999451 20.09 30.75 0 76.89 0C120.16 0 147.8 15.25 150.29 40.63H95.24C94.56 31.11 88.14 25.45 78.17 25.45C63.52 25.45 55.51 35.49 55.51 57.24C55.51 77.55 64.35 88.28 80.28 88.28C91 88.28 97.57 82.99 99.23 75.9H69.93V52.26H150.43V111.69H104.74V99.98C95.9 110.25 80.05 115.16 61.85 115.16C22.88 115.16 0 96.13 0 59.81H0.00999451Z" fill="black"/>
<path d="M160.41 87.82C160.41 71.21 171.21 62.67 201.04 60.48L234.87 57.99V55.12C234.87 49.31 231.09 46.36 225.2 46.36C218.63 46.36 214.85 49.46 214.25 55.42H163.88C165.84 34.65 191.75 25.36 224.52 25.36C257.29 25.36 283.88 34.8 283.88 61.23V89.93C283.88 97.93 285.09 103.75 287.2 111.68H238.49C237.58 108.21 236.75 104.35 236.15 99.9C226.79 110.02 212.74 114.47 196.5 114.47C174.15 114.47 160.4 105.11 160.4 87.81L160.41 87.82ZM221.95 91.07C228.14 91.07 234.86 88.12 234.86 80.88V71.67L223.46 73.63C214.32 75.44 211 77.86 211 82.99C211 88.12 215.98 91.07 221.95 91.07Z" fill="black"/>
<path d="M296.11 0.219971C313.93 1.72997 331.53 1.72997 349.35 0.219971L365.74 21.97H332.51L322.99 10.7899L313.4 21.97H279.72L296.11 0.219971ZM297.77 28.17H346.78V111.69H297.77V28.17Z" fill="black"/>
<path d="M372.84 82.92V52.71H355.7V28.17H372.84V11.41L421.85 1.73999V28.17H445.26V52.71H421.85V76.8C421.85 85.26 426.38 87.98 433.63 87.98C437.93 87.98 441.71 87.15 445.11 86.09V107.99C439.14 111.01 429.33 113.65 415.66 113.65C393.53 113.65 372.84 106.25 372.84 82.91V82.92Z" fill="black"/>
<path d="M451.75 70.61C451.75 42.82 475.54 25.37 516.85 25.37C555.06 25.37 581.12 41.68 581.12 72.87V76.87H501.98C502.43 85.86 506.51 92.73 516.78 92.73C523.88 92.73 529.16 88.95 530.15 82.23H580.75C576.97 103.37 550.62 114.48 516.11 114.48C477.82 114.48 451.77 99.23 451.77 70.6L451.75 70.61ZM498.05 0.900024H546.83L536.94 21.97H493.59L498.05 0.900024ZM529.91 59.51C529.68 51.96 525.15 46.37 516.62 46.37C508.09 46.37 503.18 51.35 502.2 59.51H529.92H529.91Z" fill="black"/>
<path d="M605.28 3.40002H626.88V111.69H605.28V3.40002Z" fill="black"/>
<path d="M635.11 3.40002H656.48L647.95 34.06H631.03L635.11 3.40002Z" fill="black"/>
<path d="M651.57 90.09V50.7499C651.57 35.2699 661.01 26.6599 676.27 26.6599C691.53 26.6599 701.19 35.1199 701.19 50.7499V75.8199H673.25V92.1299C673.25 94.0899 674.31 95.6799 676.42 95.6799C678.53 95.6799 679.59 94.0899 679.59 92.1299V80.35H701.19V90.02C701.19 105.05 691.52 113.2 676.27 113.2C661.02 113.2 651.57 104.44 651.57 90.09ZM669.4 6.56995H690.47L685.11 23.18H666.46L669.4 6.56995ZM679.59 59.96V47.65C679.59 45.54 678.53 44.03 676.42 44.03C674.31 44.03 673.25 45.54 673.25 47.65V59.96H679.59Z" fill="black"/>
<path d="M709.95 94.77V44.93H702.93V28.17H710.11V12.99L731.63 7.25V28.17H739.56V44.93H731.63V91C731.63 94.1 733.67 95 736.09 95C737.37 95 738.43 94.77 739.56 94.4V110.41C736.92 111.62 732.84 112.6 727.93 112.6C718.11 112.6 709.96 107.77 709.96 94.78L709.95 94.77Z" fill="black"/>
<path d="M742.12 90.09V50.7499C742.12 35.2699 751.56 26.6599 766.81 26.6599C782.06 26.6599 791.73 35.1199 791.73 50.7499V75.8199H763.79V92.1299C763.79 94.0899 764.85 95.6799 766.96 95.6799C769.07 95.6799 770.13 94.0899 770.13 92.1299V80.35H791.73V90.02C791.73 105.05 782.06 113.2 766.81 113.2C751.56 113.2 742.12 104.44 742.12 90.09ZM759.94 6.56995H781.01L775.65 23.18H757L759.95 6.56995H759.94ZM770.14 59.96V47.65C770.14 45.54 769.08 44.03 766.97 44.03C764.86 44.03 763.8 45.54 763.8 47.65V59.96H770.14Z" fill="black"/>
</svg>
