<svg width="322" height="48" viewBox="0 0 322 48" fill="none" xmlns="http://www.w3.org/2000/svg">
<path d="M312.431 21.3038V16.9311C312.431 16.1812 312.794 15.6416 313.517 15.6416C314.24 15.6416 314.603 16.1772 314.603 16.9311V21.3038H312.431ZM313.467 40.2189C318.692 40.2189 322 37.3223 322 31.9815V28.5453H314.603V32.7314C314.603 33.4298 314.24 33.9932 313.517 33.9932C312.794 33.9932 312.431 33.4298 312.431 32.7314V26.9343H322V18.0263C322 12.4712 318.688 9.46747 313.467 9.46747C308.246 9.46747 305.011 12.5267 305.011 18.0263V32.0053C305.011 37.1041 308.216 40.2149 313.467 40.2149M291.123 40.2189C293.372 40.2189 295.131 38.7428 296.038 36.2748V39.6832H303.045V10.0071H295.648V32.4378C295.648 33.5091 295.104 33.8583 294.615 33.8583C294.099 33.8583 293.659 33.5369 293.659 32.6243V10.0071H286.262V34.2591C286.262 38.2587 287.968 40.2149 291.123 40.2149M274.596 32.7314V16.9549C274.596 16.2288 274.96 15.6138 275.656 15.6138C276.405 15.6138 276.715 16.2328 276.715 16.9549V32.7314C276.715 33.4576 276.379 34.0726 275.656 34.0726C274.933 34.0726 274.596 33.4536 274.596 32.7314ZM272.061 40.2189C274.233 40.2189 275.862 39.092 276.715 37.0247V47.996H284.112V10.0071H276.715V12.8243C275.939 10.9197 274.336 9.47144 272.061 9.47144C268.982 9.47144 266.993 11.4832 266.993 16.2844V33.9099C266.993 38.3897 269.219 40.2149 272.061 40.2149M257.167 4.90832C257.167 7.32082 258.9 9.12226 261.229 9.12226C263.558 9.12226 265.314 7.32479 265.314 4.90832C265.314 2.49186 263.581 0.670579 261.229 0.670579C258.877 0.670579 257.167 2.4125 257.167 4.90832ZM257.527 39.6793H264.924V10.0071H257.527V39.6793ZM240.201 39.6793H247.598V18.0025C247.598 17.197 247.961 16.7962 248.477 16.7962C248.944 16.7962 249.2 17.0899 249.2 17.7089V25.8391H256.027V15.3202C256.027 11.4038 254.761 9.63412 252.199 9.63412C249.999 9.63412 248.19 11.1896 247.234 14.1139V10.0071H240.201V39.6793ZM226.389 40.9966V48H233.733V40.9966C233.733 39.5761 234.276 38.9849 236.165 38.9849L238.805 10.0071H231.358L230.038 33.0528H229.989L228.642 10.0071H221.142L223.907 38.9849C225.586 38.9849 226.389 39.5761 226.389 40.9966ZM207.358 39.6793H221.685V32.7036H215.118V1.20625H207.361V39.6793H207.358ZM171.979 21.1411C172.315 18.2445 173.995 16.4709 176.917 16.4709C179.839 16.4709 181.392 18.4548 181.468 21.1411H171.975H171.979ZM169.03 7.80888H183.874L187.262 0.321402H170.556L169.03 7.80888ZM176.737 40.6752C188.555 40.6752 197.582 36.7311 198.874 29.2198H181.548C181.212 31.6085 179.403 32.9497 176.97 32.9497C173.451 32.9497 172.055 30.5094 171.902 27.3152H199.004V25.8947C199.004 14.8123 190.081 9.0191 176.997 9.0191C162.849 9.0191 154.703 15.217 154.703 25.0892C154.703 34.9614 163.626 40.6792 176.737 40.6792M142.341 40.3776C147.023 40.3776 150.384 39.4372 152.427 38.3659V30.5848C151.264 30.9617 149.971 31.2554 148.495 31.2554C146.013 31.2554 144.46 30.2911 144.46 27.2835V18.7246H152.477V10.0071H144.46V0.618996L127.677 4.05522V10.0111H121.806V18.7286H127.677V29.4618C127.677 37.7508 134.764 40.3816 142.341 40.3816M95.7903 7.80888H107.326L110.611 3.83698L113.87 7.80888H125.248L119.634 0.0793585C113.529 0.615029 107.505 0.615029 101.401 0.0793585L95.7903 7.80491V7.80888ZM101.971 39.6793H118.754V10.0071H101.971V39.6793ZM72.2568 29.4857C72.2568 27.6604 73.3927 26.8033 76.5251 26.1605L80.4302 25.4622V28.7357C80.4302 31.3109 78.1277 32.3584 76.0088 32.3584C73.8899 32.3584 72.2606 31.3942 72.2606 29.4896M67.2923 40.6752C72.8534 40.6752 77.6611 39.092 80.87 35.4971C81.0766 37.0803 81.3596 38.4492 81.6732 39.6832H98.3529C97.63 36.866 97.2169 34.7987 97.2169 31.9577V21.7641C97.2169 12.372 88.1638 9.0191 76.8885 9.0191C65.6132 9.0191 56.7934 12.3204 56.1202 19.6968H73.3698C73.5763 17.5779 74.869 16.4788 77.118 16.4788C79.1336 16.4788 80.4264 17.5263 80.4264 19.5896V20.6094L68.8413 21.4943C58.6254 22.272 54.9269 25.3035 54.9269 31.2077C54.9269 37.112 59.6352 40.6792 67.2884 40.6792M21.1813 40.9173C27.4156 40.9173 32.8468 39.1753 35.8721 35.5248V39.6832H51.5191V18.5699H23.9466V26.966H33.9827C33.4128 29.4896 31.1639 31.3665 27.4921 31.3665C22.0343 31.3665 19.0089 27.5572 19.0089 20.3396C19.0089 12.614 21.7512 9.0429 26.7654 9.0429C30.1809 9.0429 32.3763 11.0546 32.6096 14.4353H51.4617C50.6088 5.42019 41.1464 0 26.3256 0C10.5257 0 0 7.1383 0 21.2482C0 34.1519 7.83687 40.9133 21.1813 40.9133" fill="#242627"/>
</svg>
