<svg width="827" height="151" viewBox="0 0 827 151" fill="none" xmlns="http://www.w3.org/2000/svg">
<path d="M798.229 109.478V108.868C798.229 104.978 799.729 102.578 803.139 102.578C806.259 102.578 807.679 104.968 807.679 108.618V109.468H798.229V109.478ZM803.139 138.608C816.409 138.608 825.649 132.358 826.259 121.688H807.679C807.679 124.978 806.179 126.998 803.179 126.998C799.449 126.998 798.189 124.198 798.189 120.508V118.638H826.339V112.998C826.339 98.8385 817.459 91.2985 803.099 91.2985C788.739 91.2985 779.649 98.9685 779.649 113.568V116.768C779.649 131.368 789.059 138.588 803.139 138.588M744.319 138.568C750.929 138.568 755.519 134.798 757.829 129.688V137.398H775.399V92.5385H757.109V120.728C757.109 123.888 755.079 125.228 753.299 125.228C751.519 125.228 749.969 124.088 749.969 121.008V92.5285H731.679V125.388C731.679 134.068 736.259 138.568 744.339 138.568M699.329 118.688V110.978C699.329 105.908 700.749 103.438 703.789 103.438C706.829 103.438 708.289 105.908 708.289 110.978V118.688C708.289 123.718 706.869 126.278 703.789 126.278C700.709 126.278 699.329 123.718 699.329 118.688ZM695.199 138.608C700.629 138.608 705.299 135.648 707.939 131.508V150.528H726.269V137.388H726.309V92.5285H707.929V98.6085C705.619 94.4285 700.869 91.3085 695.439 91.3085C686.149 91.3085 680.389 97.5185 680.389 110.738V119.498C680.389 132.558 685.739 138.608 695.199 138.608ZM648.669 119.258V110.538C648.669 105.588 650.169 103.078 653.419 103.078C656.669 103.078 658.209 105.588 658.209 110.538V119.258C658.209 124.328 656.709 126.848 653.419 126.848C650.129 126.848 648.669 124.328 648.669 119.258ZM653.409 138.608C667.199 138.608 677.179 131.508 677.179 116.748V112.938C677.179 98.2985 667.039 91.3185 653.409 91.3185C639.779 91.3185 629.679 98.2985 629.679 112.938V116.748C629.679 131.518 639.659 138.608 653.409 138.608ZM598.529 118.608V111.508C598.529 106.358 599.949 103.598 603.069 103.598C606.189 103.598 607.489 106.358 607.489 111.508V118.608C607.489 123.798 606.109 126.438 603.069 126.438C600.029 126.438 598.529 123.798 598.529 118.608ZM611.549 138.608C620.519 138.608 626.479 132.398 626.479 119.218V110.378C626.479 97.3985 620.759 91.3185 611.719 91.3185C606.279 91.3185 601.499 94.3585 598.899 98.4585V92.5385H580.559V150.548H598.899V131.238C601.169 135.458 605.919 138.618 611.559 138.618M548.029 109.478V108.868C548.029 104.978 549.529 102.578 552.939 102.578C556.059 102.578 557.479 104.968 557.479 108.618V109.468H548.029V109.478ZM544.539 89.3185H560.519L565.019 78.9285H547.049L544.529 89.3185H544.539ZM552.939 138.608C566.199 138.608 575.449 132.358 576.059 121.688H557.479C557.479 124.978 555.979 126.998 552.979 126.998C549.249 126.998 547.989 124.198 547.989 120.508V118.638H576.139V112.998C576.139 98.8385 567.259 91.2985 552.899 91.2985C538.539 91.2985 529.449 98.9685 529.449 113.568V116.768C529.449 131.368 538.859 138.588 552.939 138.588M511.519 101.858H525.799L531.639 79.2685H514.599L511.519 101.858ZM489.089 137.388H507.389V79.2185H489.089V137.388ZM441.909 109.478V108.868C441.909 104.978 443.409 102.578 446.819 102.578C449.939 102.578 451.359 104.968 451.359 108.618V109.468H441.909V109.478ZM446.819 138.608C460.079 138.608 469.329 132.358 469.939 121.688H451.359C451.359 124.978 449.859 126.998 446.859 126.998C443.129 126.998 441.869 124.198 441.869 120.508V118.638H470.019V112.998C470.019 98.8385 461.139 91.2985 446.779 91.2985C432.419 91.2985 423.329 98.9685 423.329 113.568V116.768C423.329 131.368 432.739 138.588 446.819 138.588M392.099 118.688V110.978C392.099 105.908 393.519 103.438 396.559 103.438C399.599 103.438 401.059 105.908 401.059 110.978V118.688C401.059 123.718 399.639 126.278 396.559 126.278C393.479 126.278 392.099 123.718 392.099 118.688ZM387.959 138.608C393.399 138.608 398.059 135.648 400.699 131.508V137.388H419.079V92.5285H419.039V79.2185H400.709V98.6085C398.399 94.4285 393.649 91.3085 388.219 91.3085C378.929 91.3085 373.169 97.5185 373.169 110.738V119.498C373.169 132.558 378.529 138.608 387.979 138.608M327.029 109.478V108.868C327.029 104.978 328.529 102.578 331.939 102.578C335.059 102.578 336.479 104.968 336.479 108.618V109.468H327.029V109.478ZM331.939 138.608C345.199 138.608 354.449 132.358 355.059 121.688H336.479C336.479 124.978 334.979 126.998 331.979 126.998C328.249 126.998 326.989 124.198 326.989 120.508V118.638H355.139V112.998C355.139 98.8385 346.259 91.2985 331.899 91.2985C317.539 91.2985 308.449 98.9685 308.449 113.568V116.768C308.449 131.368 317.859 138.588 331.939 138.588M273.119 138.568C279.729 138.568 284.319 134.798 286.629 129.688V137.398H304.189V92.5385H285.899V120.728C285.899 123.888 283.869 125.228 282.089 125.228C280.309 125.228 278.759 124.088 278.759 121.008V92.5285H260.469V125.388C260.469 134.068 265.049 138.568 273.129 138.568M228.139 118.688V110.978C228.139 105.908 229.559 103.438 232.599 103.438C235.639 103.438 237.099 105.908 237.099 110.978V118.688C237.099 123.718 235.679 126.278 232.599 126.278C229.519 126.278 228.139 123.718 228.139 118.688ZM223.999 138.608C229.439 138.608 234.099 135.648 236.739 131.508V150.528H255.079V137.388H255.119V92.5285H236.739V98.6085C234.429 94.4285 229.679 91.3085 224.249 91.3085C214.959 91.3085 209.199 97.5185 209.199 110.738V119.498C209.199 132.558 214.549 138.608 224.009 138.608M185.579 83.2785C185.579 87.6985 189.959 90.6185 195.519 90.6185C201.079 90.6185 205.459 87.6985 205.459 83.2785C205.459 78.8585 201.119 75.9385 195.519 75.9385C189.919 75.9385 185.579 78.8585 185.579 83.2785ZM186.349 137.388H204.639V92.5285H186.349V137.388ZM143.029 137.388H161.319V109.768C161.319 107.738 162.369 106.768 163.709 106.768C164.969 106.768 165.779 107.538 165.779 109.448V118.778H182.329V104.138C182.329 95.4985 179.169 91.4385 173.039 91.4385C167.439 91.4385 162.819 95.2085 160.549 101.298V92.5385H143.029V137.398V137.388ZM110.539 118.608V111.508C110.539 106.358 111.959 103.598 115.079 103.598C118.199 103.598 119.499 106.358 119.499 111.508V118.608C119.499 123.798 118.119 126.438 115.079 126.438C112.039 126.438 110.539 123.798 110.539 118.608ZM123.559 138.608C132.519 138.608 138.489 132.398 138.489 119.218V110.378C138.489 97.3985 132.769 91.3185 123.729 91.3185C118.289 91.3185 113.509 94.3585 110.909 98.4585V79.2285H92.5788V137.398H110.909V131.228C113.179 135.448 117.929 138.608 123.569 138.608M61.4587 122.338V121.728C61.4587 118.438 62.7587 117.058 66.5687 115.888L68.7988 115.238V123.108C68.7988 125.788 67.0587 126.918 65.2687 126.918C63.0787 126.918 61.4587 125.538 61.4587 122.338ZM56.1387 138.568C62.0187 138.568 66.6887 135.808 69.4487 131.388C69.6087 133.498 69.9388 135.488 70.2988 137.388H88.4688C87.6187 133.778 87.0887 130.738 87.0887 127.128V107.208C87.0887 96.5385 78.6087 91.3485 66.0387 91.3485C53.4688 91.3485 44.4187 96.2585 44.0087 106.638V106.718H62.5887V106.068C62.5887 103.308 63.5987 101.888 65.8387 101.888C67.8687 101.888 68.7988 103.068 68.7988 105.418V108.178L59.1488 109.398C47.4688 110.938 42.6387 114.668 42.6387 124.038V124.318C42.6387 134.008 48.2388 138.558 56.1488 138.558M0.96875 137.388H20.5188V115.968H39.3387V102.498H20.5188V92.5585H42.2987V79.2085H0.96875V137.378V137.388Z" fill="#242627"/>
<path d="M490.06 32.919V26.309C490.06 25.169 490.63 24.359 491.76 24.359C492.89 24.359 493.46 25.169 493.46 26.309V32.919H490.05H490.06ZM491.68 61.519C499.87 61.519 505.07 57.139 505.07 49.069V43.879H493.47V50.209C493.47 51.259 492.9 52.119 491.77 52.119C490.64 52.119 490.07 51.269 490.07 50.209V41.449H505.08V27.979C505.08 19.579 499.89 15.039 491.69 15.039C483.49 15.039 478.43 19.659 478.43 27.979V49.119C478.43 56.829 483.46 61.529 491.69 61.529M456.64 61.519C460.17 61.519 462.93 59.289 464.35 55.559V60.709H475.34V15.839H463.74V49.749C463.74 51.369 462.89 51.899 462.12 51.899C461.31 51.899 460.62 51.409 460.62 50.029V15.839H449.02V52.509C449.02 58.549 451.7 61.509 456.65 61.509M430.72 50.199V26.349C430.72 25.249 431.29 24.319 432.38 24.319C433.56 24.319 434.04 25.249 434.04 26.349V50.199C434.04 51.299 433.51 52.229 432.38 52.229C431.25 52.229 430.72 51.299 430.72 50.199ZM426.74 61.519C430.15 61.519 432.7 59.819 434.04 56.689V73.279H445.64V15.839H434.04V20.099C432.82 17.219 430.31 15.029 426.74 15.029C421.91 15.029 418.79 18.069 418.79 25.329V51.979C418.79 58.749 422.28 61.509 426.74 61.509M403.37 8.12898C403.37 11.779 406.09 14.499 409.74 14.499C413.39 14.499 416.15 11.779 416.15 8.12898C416.15 4.47898 413.43 1.71898 409.74 1.71898C406.05 1.71898 403.37 4.35898 403.37 8.12898ZM403.94 60.699H415.54V15.839H403.94V60.699ZM376.76 60.699H388.36V27.929C388.36 26.709 388.93 26.099 389.74 26.099C390.47 26.099 390.88 26.549 390.88 27.479V39.769H401.59V23.869C401.59 17.949 399.6 15.269 395.59 15.269C392.14 15.269 389.3 17.619 387.8 22.039V15.829H376.77V60.689L376.76 60.699ZM355.1 62.689V73.279H366.62V62.689C366.62 60.539 367.47 59.649 370.43 59.649L374.57 15.839H362.89L360.82 50.679H360.74L358.63 15.839H346.87L351.21 59.649C353.85 59.649 355.1 60.539 355.1 62.689ZM325.25 60.699H347.72V50.149H337.42V2.52898H325.25V60.699ZM269.75 32.669C270.28 28.289 272.91 25.609 277.5 25.609C282.09 25.609 284.52 28.609 284.64 32.669H269.75ZM265.13 12.509H288.41L293.72 1.18898H267.51L265.12 12.509H265.13ZM277.22 62.209C295.76 62.209 309.92 56.249 311.94 44.889H284.76C284.23 48.499 281.39 50.529 277.58 50.529C272.06 50.529 269.87 46.839 269.63 42.009H312.14V39.859C312.14 23.109 298.15 14.349 277.62 14.349C255.43 14.349 242.65 23.719 242.65 38.649C242.65 53.579 256.65 62.219 277.21 62.219M223.27 61.759C230.61 61.759 235.89 60.339 239.09 58.719V46.959C237.26 47.529 235.24 47.969 232.92 47.969C229.02 47.969 226.59 46.509 226.59 41.969V29.029H239.17V15.849H226.59V1.63898L200.26 6.82898V15.839H191.05V29.019H200.26V45.249C200.26 57.779 211.38 61.759 223.26 61.759M150.25 12.509H168.34L173.49 6.50898L178.6 12.509H196.45L187.65 0.828984C178.08 1.63898 168.63 1.63898 159.05 0.828984L150.25 12.509ZM159.95 60.699H186.28V15.839H159.95V60.699ZM113.34 45.289C113.34 42.529 115.13 41.229 120.03 40.259L126.16 39.209V44.159C126.16 48.049 122.55 49.639 119.22 49.639C115.89 49.639 113.34 48.179 113.34 45.299M105.55 62.209C114.27 62.209 121.82 59.819 126.85 54.379C127.17 56.769 127.62 58.839 128.11 60.709H154.27C153.13 56.449 152.49 53.329 152.49 49.029V33.619C152.49 19.419 138.29 14.349 120.61 14.349C102.93 14.349 89.09 19.339 88.04 30.489H115.1C115.42 27.289 117.45 25.619 120.98 25.619C124.14 25.619 126.17 27.199 126.17 30.319V31.859L108 33.199C91.98 34.379 86.18 38.959 86.18 47.889C86.18 56.819 93.56 62.209 105.57 62.209M33.22 62.569C43 62.569 51.52 59.929 56.26 54.419V60.709H80.8V28.789H37.56V41.489H53.3C52.41 45.299 48.88 48.139 43.12 48.139C34.56 48.139 29.82 42.379 29.82 31.469C29.82 19.789 34.12 14.389 41.99 14.389C47.34 14.389 50.79 17.429 51.16 22.539H80.73C79.38 8.89898 64.54 0.708984 41.29 0.708984C16.51 0.708984 0 11.499 0 32.839C0 52.349 12.29 62.569 33.22 62.569Z" fill="#242627"/>
</svg>
