<svg width="201" height="28" viewBox="0 0 201 28" fill="none" xmlns="http://www.w3.org/2000/svg">
<path d="M25.1564 21.7397C25.2916 22.4932 25.6008 24.6475 26.0451 25.1981C26.6634 25.9516 28.3153 25.9516 29.2427 26.0386L28.9722 26.908C27.0208 26.8694 25.0211 26.7921 23.0601 26.7535C21.1473 26.7921 19.2345 26.8694 17.3314 26.908L17.5536 26.0386C19.2828 25.9227 21.3791 26.0772 21.3791 24.0872C21.3791 23.3723 21.2439 22.4546 21.1087 21.701L20.1329 15.9724H11.5158L9.56443 19.2763C9.207 19.9139 7.0334 23.6525 7.0334 24.802C7.0334 26.0386 9.83493 25.9903 10.6367 26.0386L10.3663 26.908C8.67567 26.8694 6.9851 26.7921 5.30418 26.7535C3.79715 26.7921 2.28047 26.8694 0.773438 26.908L1.04393 26.0386C2.51232 25.8357 3.43972 25.5556 4.51203 24.5219C5.70992 23.3723 7.31355 20.5032 8.24095 19.0348L20.3068 0.254883H21.64L25.1467 21.7397H25.1564ZM19.9108 14.7745L18.5776 4.94985H18.4907L12.2694 14.7745H19.9108Z" fill="#242627"/>
<path d="M48.3507 26.909H47.9063L47.4233 24.8416C44.7474 26.7158 42.5448 27.3437 39.3085 27.3437C33.3094 27.3437 29.3486 23.1704 29.3486 17.2389C29.3486 9.08546 35.9854 0.20752 44.6604 0.20752C47.2591 0.20752 48.8627 0.961034 51.017 2.27485L52.4178 0.845108H52.8138L51.2971 8.245H50.4953C50.2538 4.46777 49.4134 1.08662 44.9019 1.08662C37.3861 1.08662 33.3481 12.6598 33.3481 18.7942C33.3481 23.1704 35.3478 26.4742 40.1104 26.4742C45.4236 26.4742 47.4233 22.6197 49.6259 18.514H50.4663L48.3507 26.909Z" fill="#242627"/>
<path d="M64.2715 21.6625C64.1073 22.3001 63.5083 24.0872 63.5083 24.7248C63.5083 26.2318 65.5853 26 66.9861 26.0386L66.7059 26.9081C64.9091 26.8694 62.9094 26.7922 60.9096 26.7535C59.0742 26.7922 57.229 26.8694 55.3935 26.9081L55.635 26.0386C59.1514 26.1932 59.4316 24.9277 60.2721 21.9813L65.7495 1.45283C60.2334 1.45283 56.717 1.53011 54.6304 7.29739H53.8672L55.6254 0.57373C59.6634 0.612372 63.6629 0.689656 67.7009 0.728297C71.3816 0.689656 75.1008 0.612372 78.7814 0.57373V7.29739H77.9796C77.1005 2.04212 75.6998 1.45283 69.662 1.45283L64.2618 21.6625H64.2715Z" fill="#242627"/>
<path d="M73.5649 26.0386C77.0813 26.1932 77.3614 24.9277 78.1632 21.9813L82.4814 5.90629C82.6457 5.2687 83.1577 3.52016 83.1577 2.92122C83.1577 1.45283 81.2352 1.45283 80.1629 1.45283L80.4044 0.57373C82.0854 0.612372 83.7276 0.689656 85.3989 0.728297C89.833 0.689656 94.3155 0.612372 98.7496 0.57373L99.3099 6.62116H98.5468C97.3875 2.4865 95.6679 1.45283 92.7505 1.45283H87.4373L84.5584 12.2725H87.6401C89.9973 12.2725 91.0019 11.4804 92.5186 8.06057H93.2432L91.1662 18.204H90.3644C90.3644 16.8129 90.9247 14.4268 89.321 13.5477C88.838 13.2675 87.9976 13.1516 87.1571 13.1516H84.3169L82.0371 21.5852C81.8342 22.2614 81.641 22.9763 81.641 23.6912C81.641 26.3961 86.0365 26.0386 87.6401 26.0386C92.48 26.0386 94.1609 24.2901 96.1606 20.0685H97.0784L95.2429 26.9081C89.8041 26.8694 84.3652 26.7922 78.9264 26.7535C77.0426 26.7922 75.2071 26.8694 73.333 26.9081L73.5745 26.0386H73.5649Z" fill="#242627"/>
<path d="M118.119 1.0959H118.64L117.201 7.8582H116.525C116.409 4.04233 114.921 1.0959 111.124 1.0959C108.767 1.0959 106.845 2.72851 106.845 5.11464C106.845 10.5245 116.206 12.6691 116.206 19.9531C116.206 24.4452 112.612 27.353 108.246 27.353C105.647 27.353 102.691 26.2807 100.846 24.4065L99.5705 26.0391H99.0488L100.372 18.6392H101.174C101.493 22.8126 102.894 26.4739 107.734 26.4739C110.574 26.4739 112.612 24.252 112.612 21.4601C112.612 15.374 103.454 13.4613 103.454 6.62167C103.454 2.56428 106.854 0.216797 110.651 0.216797C113.047 0.216797 115.047 1.00895 116.93 2.52564L118.128 1.0959H118.119Z" fill="#242627"/>
<path d="M148.385 1.0959H148.907L147.467 7.8582H146.791C146.675 4.04233 145.187 1.0959 141.391 1.0959C139.034 1.0959 137.111 2.72851 137.111 5.11464C137.111 10.5245 146.462 12.6691 146.462 19.9531C146.462 24.4452 142.859 27.353 138.502 27.353C135.904 27.353 132.948 26.2807 131.102 24.4065L129.818 26.0391H129.296L130.619 18.6392H131.421C131.74 22.8126 133.141 26.4739 137.981 26.4739C140.821 26.4739 142.859 24.252 142.859 21.4601C142.859 15.374 133.701 13.4613 133.701 6.62167C133.701 2.56428 137.102 0.216797 140.898 0.216797C143.294 0.216797 145.294 1.00895 147.177 2.52564L148.375 1.0959H148.385Z" fill="#242627"/>
<path d="M154.23 5.90629C154.433 5.23006 154.993 3.52016 154.993 2.84393C154.993 1.24996 152.433 1.49147 151.476 1.45283L151.718 0.57373C153.476 0.612372 155.234 0.689656 156.993 0.728297C158.992 0.689656 160.992 0.612372 162.992 0.57373L162.75 1.45283C161.63 1.49147 160.074 1.49147 159.35 2.4865C158.751 3.24001 157.949 6.1478 157.669 7.10419L155.234 16.214C154.877 17.721 154.355 19.199 154.355 20.7544C154.355 24.2998 157.157 26.1642 160.432 26.1642C166.151 26.1642 167.909 21.7494 169.348 17.0544C170.15 14.5427 172.546 5.95459 172.546 3.72303C172.546 1.61706 170.865 1.53011 169.271 1.45283L169.512 0.57373C170.952 0.651014 172.353 0.689656 173.792 0.728297C175.309 0.728297 176.787 0.651014 178.313 0.57373L178.072 1.45283C174.835 1.45283 174.314 3.48152 173.637 6.1478L171.56 13.5477C169.638 20.2327 168.044 27.3525 159.726 27.3525C155.408 27.3525 150.568 25.4783 150.568 20.4742C150.568 18.7643 151.37 16.5714 151.805 14.9002L154.249 5.90629H154.23Z" fill="#242627"/>
<path d="M179.066 0.574291C180.824 0.612933 182.621 0.690216 184.379 0.728858C185.703 0.690216 187.017 0.612933 188.34 0.574291C191.538 0.410064 194.455 1.17324 197.015 3.24057C199.536 5.3079 200.773 8.33162 200.773 11.5196C200.773 15.7412 198.937 19.8372 195.933 22.774C192.571 26.0006 188.978 27.0342 184.418 26.9086C182.099 26.87 179.742 26.7927 177.424 26.7541C175.743 26.7927 174.062 26.87 172.391 26.9086L172.632 26.0392C176.149 26.1938 176.429 24.9282 177.269 21.9818L181.587 5.90685C181.79 5.23062 182.351 3.52072 182.351 2.84449C182.351 1.25052 179.791 1.49203 178.834 1.45339L179.076 0.574291H179.066ZM181.781 19.4701C181.462 20.5811 180.901 22.5325 180.901 23.6917C180.901 25.9619 183.143 26.0392 184.862 26.0392C189.345 26.0392 191.982 24.0105 194.098 20.1463C195.779 17.0067 196.774 13.1039 196.774 9.51985C196.774 4.26458 193.499 0.922067 188.417 1.44373C187.577 1.52101 187.055 1.52101 186.736 1.72388C186.456 1.92675 186.418 2.36147 186.137 3.3565L181.781 19.4701Z" fill="#242627"/>
</svg>
