<svg width="140" height="73" viewBox="0 0 140 73" fill="none" xmlns="http://www.w3.org/2000/svg">
<path d="M9.73565 43.209L0.773438 65.9488H5.35029L7.04644 61.5613H16.6488L18.3778 65.9488H22.9218L13.9596 43.2117H9.73565V43.209ZM8.4225 57.7485L11.8476 48.4943L15.2399 57.7485H8.4225Z" fill="#242627"/>
<path d="M28.5244 52.4981V50.3193H24.875V65.9482H28.8445V56.1494C29.5476 54.581 30.7978 53.8447 32.9098 53.8447H33.6129V50.3221H32.7156C30.7623 50.3221 29.3862 51.0912 28.5217 52.5008" fill="#242627"/>
<path d="M41.7108 46.54H37.7412V50.32H35.2764V53.8426H37.7412V60.8879C37.7412 64.0904 39.503 65.9488 43.0239 65.9488H44.783V62.3304L43.2783 62.459C42.1567 62.459 41.7108 61.6598 41.7108 60.346V53.8454H44.783L46.222 50.3227H41.708V46.5428L41.7108 46.54Z" fill="#242627"/>
<path d="M55.3459 61.369L51.3462 50.3193H47.0566L53.3296 66.1398L50.7362 72.353H54.9629L63.7637 50.3193H59.4111L55.3459 61.369Z" fill="#242627"/>
<path d="M66.9639 65.9485H69.6203V55.6351H79.1925V53.169H69.6203V45.6748H79.6412V43.2114H66.9639V65.9485Z" fill="#242627"/>
<path d="M97.8833 50.32H95.5141V53.1693C94.0752 51.1521 91.8319 49.9341 89.4326 49.9341C85.2388 49.9341 81.4307 53.1994 81.4307 58.1317C81.4307 63.064 85.2388 66.3293 89.4326 66.3293C91.8319 66.3293 94.1052 65.1442 95.547 63.0941L96.22 65.9434H98.7478L97.8833 62.1334V50.3173V50.32ZM95.3226 58.1344C95.3226 61.4983 92.8578 63.9946 89.6898 63.9946C86.5218 63.9946 84.057 61.4956 84.057 58.1344C84.057 54.7733 86.5218 52.2743 89.6898 52.2743C92.8578 52.2743 95.1941 54.6446 95.3226 57.8799V58.1372V58.1344Z" fill="#242627"/>
<path d="M105.054 52.6897V50.3193H102.685V65.9482H105.245V55.4432C106.11 53.3931 107.324 52.624 109.439 52.624H110.495V50.3193H109.568C107.456 50.3193 105.885 51.1514 105.054 52.6897Z" fill="#242627"/>
<path d="M117.313 46.5723H114.815V50.3194H112.191V52.624H114.752V61.1118C114.752 64.1855 116.352 65.9482 119.553 65.9482H121.315V63.5149L119.81 63.6436C118.018 63.6436 117.313 62.7458 117.313 61.2732V52.6267H121.602L122.625 50.3221H117.313V46.575V46.5723Z" fill="#242627"/>
<path d="M136.388 50.3193L131.458 62.7129L126.528 50.3193H123.746L130.115 65.6909L127.267 72.353H130.019L139.173 50.3193H136.388Z" fill="#242627"/>
<path d="M52.3228 19.7482C54.2186 19.7482 55.7588 18.2044 55.7588 16.3104C55.7588 14.4163 54.2159 12.8726 52.3228 12.8726C50.4297 12.8726 48.8867 14.4163 48.8867 16.3104C48.8867 18.2044 50.4297 19.7482 52.3228 19.7482Z" fill="#242627"/>
<path d="M69.9077 7.53088C71.8036 7.53088 73.3438 5.98715 73.3438 4.09308C73.3438 2.199 71.8009 0.655273 69.9077 0.655273C68.0146 0.655273 66.4717 2.199 66.4717 4.09308C66.4717 5.98715 68.0146 7.53088 69.9077 7.53088Z" fill="#242627"/>
<path d="M69.9077 19.7482C71.8036 19.7482 73.3438 18.2044 73.3438 16.3104C73.3438 14.4163 71.8009 12.8726 69.9077 12.8726C68.0146 12.8726 66.4717 14.4163 66.4717 16.3104C66.4717 18.2044 68.0146 19.7482 69.9077 19.7482Z" fill="#242627"/>
<path d="M52.3228 31.9684C54.2186 31.9684 55.7588 30.4247 55.7588 28.5306C55.7588 26.6365 54.2159 25.0928 52.3228 25.0928C50.4297 25.0928 48.8867 26.6365 48.8867 28.5306C48.8867 30.4247 50.4297 31.9684 52.3228 31.9684Z" fill="#242627"/>
<path d="M82.1197 7.53088C84.0155 7.53088 85.5557 5.98715 85.5557 4.09308C85.5557 2.199 84.0128 0.655273 82.1197 0.655273C80.2265 0.655273 78.6836 2.199 78.6836 4.09308C78.6836 5.98715 80.2265 7.53088 82.1197 7.53088Z" fill="#242627"/>
<path d="M94.3325 7.53088C96.2284 7.53088 97.7686 5.98715 97.7686 4.09308C97.7686 2.199 96.2257 0.655273 94.3325 0.655273C92.4394 0.655273 90.8965 2.199 90.8965 4.09308C90.8965 5.98715 92.4394 7.53088 94.3325 7.53088Z" fill="#242627"/>
<path d="M85.5585 16.3099C85.5585 14.4131 84.0155 12.8721 82.1224 12.8721C80.2293 12.8721 78.6836 14.4158 78.6836 16.3099C78.6836 18.2039 80.2265 19.7477 82.1224 19.7477C84.0182 19.7477 85.5585 18.2039 85.5585 16.3099Z" fill="#242627"/>
<path d="M27.898 31.9684C29.7938 31.9684 31.334 30.4247 31.334 28.5306C31.334 26.6365 29.7911 25.0928 27.898 25.0928C26.0049 25.0928 24.4619 26.6365 24.4619 28.5306C24.4619 30.4247 26.0049 31.9684 27.898 31.9684Z" fill="#242627"/>
<path d="M69.9077 31.9684C71.8036 31.9684 73.3438 30.4247 73.3438 28.5306C73.3438 26.6365 71.8009 25.0928 69.9077 25.0928C68.0146 25.0928 66.4717 26.6365 66.4717 28.5306C66.4717 30.4247 68.0146 31.9684 69.9077 31.9684Z" fill="#242627"/>
<path d="M40.1109 19.7482C42.0067 19.7482 43.5469 18.2044 43.5469 16.3104C43.5469 14.4163 42.004 12.8726 40.1109 12.8726C38.2177 12.8726 36.6748 14.4163 36.6748 16.3104C36.6748 18.2044 38.2177 19.7482 40.1109 19.7482Z" fill="#242627"/>
<path d="M40.1109 7.53088C42.0067 7.53088 43.5469 5.98715 43.5469 4.09308C43.5469 2.199 42.004 0.655273 40.1109 0.655273C38.2177 0.655273 36.6748 2.199 36.6748 4.09308C36.6748 5.98715 38.2177 7.53088 40.1109 7.53088Z" fill="#242627"/>
<path d="M27.898 19.7482C29.7938 19.7482 31.334 18.2044 31.334 16.3104C31.334 14.4163 29.7911 12.8726 27.898 12.8726C26.0049 12.8726 24.4619 14.4163 24.4619 16.3104C24.4619 18.2044 26.0049 19.7482 27.898 19.7482Z" fill="#242627"/>
</svg>
