<svg width="319" height="68" viewBox="0 0 319 68" fill="none" xmlns="http://www.w3.org/2000/svg">
<path d="M99.282 19.236H98.512L100.228 15.848H103V16.112L99.282 19.236ZM105.112 36H93.034V35.208C94.486 35.142 94.86 34.724 94.86 33.382V23.218C94.86 21.876 94.486 21.458 93.034 21.392V20.6H104.562L105.266 24.208L104.496 24.362C103.66 22.36 102.758 21.59 100.294 21.59H96.906V27.574H99.436C100.668 27.574 101.24 27.112 101.482 25.484H102.23V30.566H101.482C101.24 28.938 100.646 28.564 99.436 28.564H96.906V35.01H100.448C103.154 35.01 104.386 33.646 105.002 31.38L105.816 31.49L105.112 36ZM111.45 36.264C109.844 36.264 108.722 35.186 108.722 33.338V26.518H106.94V25.814C108.524 25.418 109.624 24.318 109.998 22.91H110.658V25.44H114.002V26.518H110.658V33.052C110.658 34.328 111.45 34.834 112.308 34.834C112.88 34.834 113.386 34.702 113.98 34.262L114.42 34.79C113.606 35.67 112.594 36.264 111.45 36.264ZM125.139 35.296H125.403V36H123.511C122.763 36 122.367 35.494 122.345 34.768C121.729 35.714 120.673 36.264 119.397 36.264C117.373 36.264 115.635 34.812 115.635 32.678C115.635 30.544 117.351 29.092 119.397 29.092C120.651 29.092 121.707 29.642 122.323 30.566V28.19C122.323 26.76 121.465 26.034 120.189 26.034C118.847 26.034 118.033 26.738 118.033 28.256H115.921C115.921 26.452 117.263 25.176 120.189 25.176C123.049 25.176 124.259 26.43 124.259 28.564V34.372C124.259 34.944 124.501 35.296 125.139 35.296ZM120.035 35.12C121.311 35.12 122.345 34.108 122.345 32.678C122.345 31.226 121.311 30.236 120.035 30.236C118.759 30.236 117.725 31.226 117.725 32.678C117.725 34.108 118.759 35.12 120.035 35.12ZM133.443 25.176C136.171 25.176 138.019 27.31 138.019 30.72C138.019 33.954 135.929 36.264 132.981 36.264C131.089 36.264 130.011 35.428 128.427 35.428C128.273 35.428 128.097 35.428 127.899 35.45V22.866C127.899 22.096 127.591 21.744 126.799 21.744H126.381V21.106L129.659 20.204L129.835 20.358V27.266C130.561 25.924 131.881 25.176 133.443 25.176ZM132.849 35.362C134.653 35.362 135.841 33.69 135.841 30.786C135.841 28.036 134.829 26.32 132.871 26.32C131.111 26.32 129.791 27.926 129.791 30.786C129.791 34.042 130.891 35.362 132.849 35.362ZM144.42 36H139.712V35.296C140.658 35.274 141.098 34.988 141.098 33.976V22.866C141.098 22.096 140.79 21.744 139.976 21.744H139.58V21.106L142.858 20.204L143.034 20.358V33.976C143.034 34.988 143.474 35.274 144.42 35.296V36ZM148.21 22.954C147.396 22.954 146.758 22.294 146.758 21.502C146.758 20.71 147.396 20.05 148.21 20.05C149.024 20.05 149.662 20.71 149.662 21.502C149.662 22.294 149.024 22.954 148.21 22.954ZM150.806 36H146.098V35.296C147.066 35.274 147.484 34.988 147.484 33.976V27.838C147.484 27.09 147.176 26.716 146.384 26.716H145.966V26.1L149.244 25.198L149.42 25.374V33.976C149.42 34.988 149.86 35.274 150.806 35.296V36ZM155.955 36.264C154.657 36.264 153.667 35.956 152.765 35.472V33.096L153.359 33.03C154.041 34.614 155.185 35.164 156.329 35.164C157.561 35.164 158.353 34.526 158.353 33.492C158.353 32.546 157.627 32.128 156.373 31.666L155.251 31.248C153.931 30.764 152.809 29.928 152.809 28.212C152.809 26.298 154.327 25.176 156.483 25.176C157.451 25.176 158.595 25.418 159.497 25.946V27.97L158.903 28.036C158.485 26.87 157.495 26.122 156.263 26.122C155.251 26.122 154.415 26.694 154.415 27.618C154.415 28.542 155.273 29.026 156.307 29.4L157.429 29.818C158.991 30.39 160.047 31.094 160.047 32.744C160.047 34.812 158.287 36.264 155.955 36.264ZM165.494 36.264C164.196 36.264 163.206 35.956 162.304 35.472V33.096L162.898 33.03C163.58 34.614 164.724 35.164 165.868 35.164C167.1 35.164 167.892 34.526 167.892 33.492C167.892 32.546 167.166 32.128 165.912 31.666L164.79 31.248C163.47 30.764 162.348 29.928 162.348 28.212C162.348 26.298 163.866 25.176 166.022 25.176C166.99 25.176 168.134 25.418 169.036 25.946V27.97L168.442 28.036C168.024 26.87 167.034 26.122 165.802 26.122C164.79 26.122 163.954 26.694 163.954 27.618C163.954 28.542 164.812 29.026 165.846 29.4L166.968 29.818C168.53 30.39 169.586 31.094 169.586 32.744C169.586 34.812 167.826 36.264 165.494 36.264ZM180.203 33.91L180.709 34.438C179.829 35.516 178.487 36.264 176.727 36.264C174.043 36.264 171.579 34.372 171.579 30.522C171.579 27.332 173.559 25.176 176.441 25.176C178.927 25.176 180.687 26.782 180.687 29.114V29.818H173.493C173.537 33.14 175.517 34.834 177.761 34.834C178.729 34.834 179.543 34.438 180.203 33.91ZM176.309 26.078C174.659 26.078 173.735 27.266 173.537 28.96H178.597V28.872C178.597 27.332 177.915 26.078 176.309 26.078ZM198.638 28.828V33.976C198.638 34.988 199.078 35.274 200.046 35.296V36H195.36V35.296C196.328 35.274 196.702 34.988 196.702 33.976V29.268C196.702 27.574 195.998 26.65 194.876 26.65C193.38 26.65 192.28 28.234 192.28 30.39V33.976C192.28 34.988 192.676 35.274 193.622 35.296V36H189.002V35.296C189.948 35.274 190.344 34.988 190.344 33.976V29.268C190.344 27.574 189.662 26.65 188.54 26.65C187.044 26.65 185.922 28.234 185.922 30.39V33.976C185.922 34.988 186.318 35.274 187.264 35.296V36H182.6V35.296C183.568 35.274 183.986 34.988 183.986 33.976V27.86C183.986 27.09 183.678 26.738 182.886 26.738H182.468V26.122L185.658 25.242L185.856 25.396V27.552C186.516 26.1 187.792 25.176 189.31 25.176C190.696 25.176 191.796 26.078 192.17 27.618C192.808 26.122 194.084 25.176 195.58 25.176C197.34 25.176 198.638 26.606 198.638 28.828ZM210.024 33.91L210.53 34.438C209.65 35.516 208.308 36.264 206.548 36.264C203.864 36.264 201.4 34.372 201.4 30.522C201.4 27.332 203.38 25.176 206.262 25.176C208.748 25.176 210.508 26.782 210.508 29.114V29.818H203.314C203.358 33.14 205.338 34.834 207.582 34.834C208.55 34.834 209.364 34.438 210.024 33.91ZM206.13 26.078C204.48 26.078 203.556 27.266 203.358 28.96H208.418V28.872C208.418 27.332 207.736 26.078 206.13 26.078ZM222.409 28.762V33.976C222.409 34.988 222.849 35.274 223.795 35.296V36H219.087V35.296C220.055 35.274 220.473 34.988 220.473 33.976V29.268C220.473 27.552 219.769 26.65 218.537 26.65C216.975 26.65 215.743 28.19 215.743 30.39V33.976C215.743 34.988 216.183 35.274 217.129 35.296V36H212.421V35.296C213.389 35.274 213.807 34.988 213.807 33.976V27.86C213.807 27.09 213.499 26.738 212.707 26.738H212.289V26.122L215.479 25.242L215.655 25.396V27.684C216.293 26.122 217.635 25.176 219.219 25.176C221.177 25.176 222.409 26.562 222.409 28.762ZM229.314 36.264C227.708 36.264 226.586 35.186 226.586 33.338V26.518H224.804V25.814C226.388 25.418 227.488 24.318 227.862 22.91H228.522V25.44H231.866V26.518H228.522V33.052C228.522 34.328 229.314 34.834 230.172 34.834C230.744 34.834 231.25 34.702 231.844 34.262L232.284 34.79C231.47 35.67 230.458 36.264 229.314 36.264ZM243.823 36.264C241.161 36.264 238.697 34.372 238.697 30.522C238.697 27.332 240.655 25.176 243.603 25.176C246.001 25.176 247.761 26.76 247.761 28.96H245.627C245.627 27.222 244.901 26.078 243.361 26.078C241.557 26.078 240.611 27.64 240.611 29.686C240.611 33.096 242.613 34.834 244.857 34.834C245.847 34.834 246.639 34.438 247.321 33.91L247.805 34.438C246.947 35.516 245.583 36.264 243.823 36.264ZM260.281 34.658H260.655V35.296L257.509 36.176L257.333 36V33.734C256.717 35.318 255.375 36.264 253.791 36.264C251.877 36.264 250.667 34.878 250.667 32.678V27.464C250.667 26.32 250.161 26.166 249.281 26.144V25.44H252.603V32.172C252.603 33.888 253.285 34.79 254.473 34.79C256.035 34.79 257.245 33.25 257.245 31.05V27.486C257.245 26.32 256.739 26.166 255.859 26.144V25.44H259.181V33.536C259.181 34.306 259.489 34.658 260.281 34.658ZM266.752 36H262.044V35.296C262.99 35.274 263.43 34.988 263.43 33.976V22.866C263.43 22.096 263.122 21.744 262.308 21.744H261.912V21.106L265.19 20.204L265.366 20.358V33.976C265.366 34.988 265.806 35.274 266.752 35.296V36ZM272.368 36.264C270.762 36.264 269.64 35.186 269.64 33.338V26.518H267.858V25.814C269.442 25.418 270.542 24.318 270.916 22.91H271.576V25.44H274.92V26.518H271.576V33.052C271.576 34.328 272.368 34.834 273.226 34.834C273.798 34.834 274.304 34.702 274.898 34.262L275.338 34.79C274.524 35.67 273.512 36.264 272.368 36.264ZM287.243 34.658H287.617V35.296L284.471 36.176L284.295 36V33.734C283.679 35.318 282.337 36.264 280.753 36.264C278.839 36.264 277.629 34.878 277.629 32.678V27.464C277.629 26.32 277.123 26.166 276.243 26.144V25.44H279.565V32.172C279.565 33.888 280.247 34.79 281.435 34.79C282.997 34.79 284.207 33.25 284.207 31.05V27.486C284.207 26.32 283.701 26.166 282.821 26.144V25.44H286.143V33.536C286.143 34.306 286.451 34.658 287.243 34.658ZM295.915 25.22C296.025 25.22 296.157 25.22 296.267 25.242V27.266L296.091 27.376C295.761 27.244 295.409 27.156 294.969 27.156C293.869 27.156 292.505 27.882 292.505 30.654V33.888C292.505 35.032 293.165 35.274 294.529 35.296V36H289.227V35.296C290.195 35.274 290.613 34.988 290.613 33.976V27.86C290.613 27.09 290.305 26.738 289.513 26.738H289.095V26.122L292.219 25.242L292.395 25.418V28.014C292.989 25.968 294.331 25.22 295.915 25.22ZM306.166 33.91L306.672 34.438C305.792 35.516 304.45 36.264 302.69 36.264C300.006 36.264 297.542 34.372 297.542 30.522C297.542 27.332 299.522 25.176 302.404 25.176C304.89 25.176 306.65 26.782 306.65 29.114V29.818H299.456C299.5 33.14 301.48 34.834 303.724 34.834C304.692 34.834 305.506 34.438 306.166 33.91ZM302.272 26.078C300.622 26.078 299.698 27.266 299.5 28.96H304.56V28.872C304.56 27.332 303.878 26.078 302.272 26.078ZM313.051 36H308.343V35.296C309.289 35.274 309.729 34.988 309.729 33.976V22.866C309.729 22.096 309.421 21.744 308.607 21.744H308.211V21.106L311.489 20.204L311.665 20.358V33.976C311.665 34.988 312.105 35.274 313.051 35.296V36ZM104.21 64.768H104.628V65.406L101.482 66.198L101.284 66.022V64.02C100.602 65.45 99.216 66.264 97.588 66.264C94.86 66.264 93.012 64.13 93.012 60.72C93.012 57.31 94.86 55.176 97.588 55.176C99.15 55.176 100.47 55.924 101.196 57.244V52.866C101.196 52.096 100.888 51.744 100.074 51.744H99.656V51.106L102.956 50.204L103.132 50.358V63.778C103.132 64.548 103.462 64.768 104.21 64.768ZM98.182 65.12C99.92 65.12 101.24 63.492 101.24 60.72C101.24 57.948 99.92 56.32 98.182 56.32C96.202 56.32 95.19 58.058 95.19 60.72C95.19 63.382 96.202 65.12 98.182 65.12ZM114.805 63.91L115.311 64.438C114.431 65.516 113.089 66.264 111.329 66.264C108.645 66.264 106.181 64.372 106.181 60.522C106.181 57.332 108.161 55.176 111.043 55.176C113.529 55.176 115.289 56.782 115.289 59.114V59.818H108.095C108.139 63.14 110.119 64.834 112.363 64.834C113.331 64.834 114.145 64.438 114.805 63.91ZM110.911 56.078C109.261 56.078 108.337 57.266 108.139 58.96H113.199V58.872C113.199 57.332 112.517 56.078 110.911 56.078ZM126.846 66H122.138V65.296C123.084 65.274 123.524 64.988 123.524 63.976V52.866C123.524 52.096 123.216 51.744 122.402 51.744H122.006V51.106L125.284 50.204L125.46 50.358V63.976C125.46 64.988 125.9 65.274 126.846 65.296V66ZM138.094 65.296H138.358V66H136.466C135.718 66 135.322 65.494 135.3 64.768C134.684 65.714 133.628 66.264 132.352 66.264C130.328 66.264 128.59 64.812 128.59 62.678C128.59 60.544 130.306 59.092 132.352 59.092C133.606 59.092 134.662 59.642 135.278 60.566V58.19C135.278 56.76 134.42 56.034 133.144 56.034C131.802 56.034 130.988 56.738 130.988 58.256H128.876C128.876 56.452 130.218 55.176 133.144 55.176C136.004 55.176 137.214 56.43 137.214 58.564V64.372C137.214 64.944 137.456 65.296 138.094 65.296ZM132.99 65.12C134.266 65.12 135.3 64.108 135.3 62.678C135.3 61.226 134.266 60.236 132.99 60.236C131.714 60.236 130.68 61.226 130.68 62.678C130.68 64.108 131.714 65.12 132.99 65.12ZM153.664 51.392V50.6H158.196V51.392C157.206 51.458 156.59 51.876 156.128 53.064L151.266 66.11H150.606L145.436 53.042C144.974 51.854 144.38 51.458 143.478 51.392V50.6H148.692V51.392C147.724 51.436 147.35 51.678 147.35 52.162C147.35 52.404 147.438 52.69 147.592 53.042L151.42 62.854L154.94 53.064C155.072 52.734 155.116 52.47 155.116 52.25C155.116 51.7 154.742 51.436 153.664 51.392ZM161.144 52.954C160.33 52.954 159.692 52.294 159.692 51.502C159.692 50.71 160.33 50.05 161.144 50.05C161.958 50.05 162.596 50.71 162.596 51.502C162.596 52.294 161.958 52.954 161.144 52.954ZM163.74 66H159.032V65.296C160 65.274 160.418 64.988 160.418 63.976V57.838C160.418 57.09 160.11 56.716 159.318 56.716H158.9V56.1L162.178 55.198L162.354 55.374V63.976C162.354 64.988 162.794 65.274 163.74 65.296V66ZM169.901 66H165.193V65.296C166.139 65.274 166.579 64.988 166.579 63.976V52.866C166.579 52.096 166.271 51.744 165.457 51.744H165.061V51.106L168.339 50.204L168.515 50.358V63.976C168.515 64.988 168.955 65.274 169.901 65.296V66ZM176.067 66H171.359V65.296C172.305 65.274 172.745 64.988 172.745 63.976V52.866C172.745 52.096 172.437 51.744 171.623 51.744H171.227V51.106L174.505 50.204L174.681 50.358V63.976C174.681 64.988 175.121 65.274 176.067 65.296V66ZM186.391 63.91L186.897 64.438C186.017 65.516 184.675 66.264 182.915 66.264C180.231 66.264 177.767 64.372 177.767 60.522C177.767 57.332 179.747 55.176 182.629 55.176C185.115 55.176 186.875 56.782 186.875 59.114V59.818H179.681C179.725 63.14 181.705 64.834 183.949 64.834C184.917 64.834 185.731 64.438 186.391 63.91ZM182.497 56.078C180.847 56.078 179.923 57.266 179.725 58.96H184.785V58.872C184.785 57.332 184.103 56.078 182.497 56.078ZM205.208 64.768H205.626V65.406L202.48 66.198L202.282 66.022V64.02C201.6 65.45 200.214 66.264 198.586 66.264C195.858 66.264 194.01 64.13 194.01 60.72C194.01 57.31 195.858 55.176 198.586 55.176C200.148 55.176 201.468 55.924 202.194 57.244V52.866C202.194 52.096 201.886 51.744 201.072 51.744H200.654V51.106L203.954 50.204L204.13 50.358V63.778C204.13 64.548 204.46 64.768 205.208 64.768ZM199.18 65.12C200.918 65.12 202.238 63.492 202.238 60.72C202.238 57.948 200.918 56.32 199.18 56.32C197.2 56.32 196.188 58.058 196.188 60.72C196.188 63.382 197.2 65.12 199.18 65.12ZM215.803 63.91L216.309 64.438C215.429 65.516 214.087 66.264 212.327 66.264C209.643 66.264 207.179 64.372 207.179 60.522C207.179 57.332 209.159 55.176 212.041 55.176C214.527 55.176 216.287 56.782 216.287 59.114V59.818H209.093C209.137 63.14 211.117 64.834 213.361 64.834C214.329 64.834 215.143 64.438 215.803 63.91ZM211.909 56.078C210.259 56.078 209.335 57.266 209.137 58.96H214.197V58.872C214.197 57.332 213.515 56.078 211.909 56.078ZM229.516 66H223.444V65.208C224.896 65.142 225.27 64.724 225.27 63.382V53.218C225.27 51.876 224.896 51.458 223.444 51.392V50.6H229.428C232.53 50.6 234.95 51.92 234.95 55.044C234.95 58.234 232.53 59.686 229.01 59.686H227.316V63.382C227.316 64.724 227.778 65.142 229.516 65.208V66ZM227.316 51.59V58.696H228.9C231.232 58.696 232.684 57.552 232.684 55.044C232.684 52.602 231.21 51.59 229.296 51.59H227.316ZM245.709 65.296H245.973V66H244.081C243.333 66 242.937 65.494 242.915 64.768C242.299 65.714 241.243 66.264 239.967 66.264C237.943 66.264 236.205 64.812 236.205 62.678C236.205 60.544 237.921 59.092 239.967 59.092C241.221 59.092 242.277 59.642 242.893 60.566V58.19C242.893 56.76 242.035 56.034 240.759 56.034C239.417 56.034 238.603 56.738 238.603 58.256H236.491C236.491 56.452 237.833 55.176 240.759 55.176C243.619 55.176 244.829 56.43 244.829 58.564V64.372C244.829 64.944 245.071 65.296 245.709 65.296ZM240.605 65.12C241.881 65.12 242.915 64.108 242.915 62.678C242.915 61.226 241.881 60.236 240.605 60.236C239.329 60.236 238.295 61.226 238.295 62.678C238.295 64.108 239.329 65.12 240.605 65.12ZM254.343 55.22C254.453 55.22 254.585 55.22 254.695 55.242V57.266L254.519 57.376C254.189 57.244 253.837 57.156 253.397 57.156C252.297 57.156 250.933 57.882 250.933 60.654V63.888C250.933 65.032 251.593 65.274 252.957 65.296V66H247.655V65.296C248.623 65.274 249.041 64.988 249.041 63.976V57.86C249.041 57.09 248.733 56.738 247.941 56.738H247.523V56.122L250.647 55.242L250.823 55.418V58.014C251.417 55.968 252.759 55.22 254.343 55.22ZM258.361 52.954C257.547 52.954 256.909 52.294 256.909 51.502C256.909 50.71 257.547 50.05 258.361 50.05C259.175 50.05 259.813 50.71 259.813 51.502C259.813 52.294 259.175 52.954 258.361 52.954ZM260.957 66H256.249V65.296C257.217 65.274 257.635 64.988 257.635 63.976V57.838C257.635 57.09 257.327 56.716 256.535 56.716H256.117V56.1L259.395 55.198L259.571 55.374V63.976C259.571 64.988 260.011 65.274 260.957 65.296V66ZM266.106 66.264C264.808 66.264 263.818 65.956 262.916 65.472V63.096L263.51 63.03C264.192 64.614 265.336 65.164 266.48 65.164C267.712 65.164 268.504 64.526 268.504 63.492C268.504 62.546 267.778 62.128 266.524 61.666L265.402 61.248C264.082 60.764 262.96 59.928 262.96 58.212C262.96 56.298 264.478 55.176 266.634 55.176C267.602 55.176 268.746 55.418 269.648 55.946V57.97L269.054 58.036C268.636 56.87 267.646 56.122 266.414 56.122C265.402 56.122 264.566 56.694 264.566 57.618C264.566 58.542 265.424 59.026 266.458 59.4L267.58 59.818C269.142 60.39 270.198 61.094 270.198 62.744C270.198 64.812 268.438 66.264 266.106 66.264Z" fill="#242627"/>
<path d="M58.9057 49.7227C56.2507 49.7227 53.6364 51.4173 53.6364 54.5148C53.6364 58.233 57.1612 58.9153 58.2562 59.3055C59.3513 59.6956 61.5081 59.9687 61.5081 61.308C61.5081 62.2406 60.5335 62.5912 59.265 62.5912C57.8497 62.5912 56.7207 61.8134 56.0403 60.6008L52.9855 62.2067C53.2205 62.8614 54.9946 66.0987 59.265 66.0987C62.621 66.0987 65.0966 64.3304 65.0966 61.2627C65.0966 58.8375 63.777 57.4992 60.6406 56.5686C58.2 55.8439 57.225 55.426 57.225 54.4243C57.225 53.678 57.94 53.2316 58.9057 53.2316C60.4698 53.2316 61.1105 54.0737 61.6524 54.8571L64.6471 53.2768C64.1503 52.2896 62.6835 49.7227 58.9057 49.7227ZM1.9043 50.0378V65.782H5.49135V60.8345H7.84708C10.9414 60.8345 13.3403 58.4276 13.3403 55.4362C13.3403 52.4447 10.9414 50.0378 7.84708 50.0378H1.9043ZM18.6126 50.0378L13.2742 65.782H17.1995L18.0804 63.015C18.9815 63.2466 19.9278 63.3693 20.9008 63.3693C21.8737 63.3693 22.82 63.2466 23.7211 63.015L24.599 65.782H28.5228L23.1874 50.0378H18.6126ZM30.7508 50.0378V65.782H34.3393V60.842H36.1764L39.0042 65.782H42.8604L39.565 60.0805C41.2974 59.2632 42.4124 57.3704 42.4124 55.4362C42.4124 52.4437 40.0127 50.0378 37.0303 50.0378H30.7508ZM46.2069 50.0378V65.782H49.7954V50.0378H46.2069ZM5.49135 53.411H7.84708C8.94524 53.411 9.75337 54.2884 9.75337 55.4362C9.75337 56.5839 8.94524 57.4613 7.84708 57.4613H5.49135V53.411ZM34.3393 53.411H37.0303C38.0176 53.411 38.8239 54.3386 38.8239 55.5523C38.8239 56.7639 38.0176 57.692 37.0303 57.692H34.3393V53.411ZM20.9008 54.1544L22.7559 59.9871C22.1627 60.1394 21.5412 60.2193 20.9008 60.2193C20.2604 60.2193 19.6373 60.1394 19.0441 59.9871L20.9008 54.1544Z" fill="black"/>
<path d="M19.4788 41.667V46.6657H20.4004V41.667H19.4788ZM12.1875 41.6685L13.9164 46.6643H14.8981L16.6285 41.6685H15.7385L14.4065 45.6721L13.0835 41.6685H12.1875ZM23.9483 41.6685V46.6658H26.7957V45.8802H24.7677V41.6685H23.9483ZM29.4702 41.6685V46.6658H32.3175V45.8802H30.2895V41.6685H29.4702ZM34.992 41.6685V46.6658H38.0168V45.8802H35.8098V44.5306H37.1869V43.7525H35.8098V42.4526H37.9807V41.6685H34.992ZM44.5564 41.6685V46.6643H46.5137C47.8869 46.6643 48.8981 45.5589 48.8981 44.1672C48.8981 42.7682 47.8869 41.6685 46.5137 41.6685H44.5564ZM51.7845 41.6685V46.6658H54.8093V45.8802H52.6038V44.5306H53.9809V43.7525H52.6038V42.4526H54.7732V41.6685H51.7845ZM45.3757 42.4542H46.5137C47.461 42.4542 48.1074 43.1748 48.1074 44.1672C48.1074 45.1523 47.461 45.8802 46.5137 45.8802H45.3757V42.4542Z" fill="black"/>
<path d="M52.9725 23.4715C52.8349 23.4708 52.722 23.6023 52.5619 23.9543C48.9832 31.8149 42.3883 35.5794 35.4033 35.6319C21.4929 35.7338 18.217 24.2549 18.1287 23.944L25.2286 25.275C25.2646 25.3523 27.9801 31.6152 35.1519 31.6152C42.7372 31.6152 48.0185 24.0253 48.0185 16.1751C48.0185 9.11339 45.0474 5.07194 40.737 1.90137L21.4119 10.8726C21.2364 10.954 21.263 11.2123 21.4509 11.2556C32.1562 13.7426 33.9727 21.456 33.4667 25.832C33.3908 26.4846 33.8177 26.3755 34.2293 25.1495C35.6866 20.8023 34.6388 14.4725 28.8361 10.9097C28.8361 10.9097 39.5773 5.51973 39.5783 5.52076C40.8684 6.52443 45.0946 9.38103 45.0946 16.1751C45.0946 22.9743 41.1804 29.1508 35.1519 29.1508C29.1655 29.1508 27.0801 23.0165 27.0483 22.9321L14.2781 20.1404C14.0739 20.0879 13.8779 20.2546 13.9025 20.4646C15.0119 30.2378 22.8118 38.2476 34.1154 38.2476C43.4936 38.2476 49.8618 33.0759 52.5733 25.7661C53.1983 24.083 53.1716 23.4746 52.9725 23.4715Z" fill="black"/>
</svg>
