<svg width="119" height="30" viewBox="0 0 119 30" fill="none" xmlns="http://www.w3.org/2000/svg">
<path d="M17.8324 5.40137C2.19735 5.41219 2.06629 15.5658 2.09034 15.5694L13.177 15.5694C13.1722 15.5766 12.868 12.631 17.2204 12.6297C20.2406 12.6754 20.8887 13.9198 20.8959 15.0188C20.8887 16.3582 20.2863 16.8728 14.9552 17.5304C5.05888 18.675 1.0383 20.5735 0.805053 25.7363C0.728105 28.4451 3.23976 29.3517 3.25419 29.3517L14.5861 29.3517C14.5993 29.3517 13.1866 28.2071 13.2996 26.9627C13.3874 25.485 14.4839 24.6674 15.9327 24.2683C18.0849 23.6058 20.8875 22.5934 20.8947 22.6139L20.8947 29.3529L32.4707 29.3529L32.4707 13.7323C32.4707 7.19524 24.3935 5.4194 17.8312 5.40137L17.8324 5.40137Z" fill="#242627"/>
<path d="M52.9211 5.6468C49.0712 6.21069 47.7198 9.39204 47.715 9.38362L47.715 6.07482L36.9338 6.07482L36.9338 29.3518L48.6937 29.3518L48.6937 18.2027C48.7069 16.2333 49.2588 15.3508 49.9802 14.651C50.7918 13.8166 52.2165 13.2323 53.7783 13.2431L57.0859 13.2431L57.0859 6.07603C57.0835 6.06641 55.387 5.2873 52.9211 5.648L52.9211 5.6468Z" fill="#242627"/>
<path d="M76.3831 0.561523L64.7458 0.561523L64.7458 6.07419L59.9064 6.07419L59.9064 13.2412L64.7458 13.2412L64.7458 22.736C64.7554 24.7836 64.7121 26.4548 66.215 28.0623C67.5292 29.4077 69.2521 29.344 71.2997 29.3512L76.3831 29.3512L76.3831 13.2412L83.3662 13.2413L83.3662 6.07419L76.3831 6.07419L76.3831 0.561523Z" fill="#242627"/>
<path d="M101.805 5.5849C101.191 5.57167 85.5151 5.31918 85.3888 19.919C85.3239 26.1843 88.8443 29.3513 88.8179 29.3525L97.3327 29.3525L97.3327 23.4719L118.159 23.4719C118.169 23.4479 121.326 5.80132 101.805 5.5861L101.805 5.5849ZM106.888 17.5901L97.0261 17.5901C97.0237 17.5697 96.4346 12.7856 101.805 12.8133C107.376 12.8205 106.876 17.5697 106.888 17.5901Z" fill="#242627"/>
</svg>
