<svg width="193" height="33" viewBox="0 0 193 33" fill="none" xmlns="http://www.w3.org/2000/svg">
<path d="M100.893 29.2128C100.893 30.9528 99.483 32.3528 97.753 32.3528H91.473C89.733 32.3528 88.333 30.9428 88.333 29.2128C88.333 27.4828 89.743 26.0728 91.473 26.0728H97.753C99.493 26.0728 100.893 27.4828 100.893 29.2128Z" fill="#242627"/>
<path d="M12.6834 6.64307C15.6734 6.64307 17.5434 7.84307 18.2934 10.2331C18.5934 9.11307 19.2634 8.23307 20.3134 7.60307C21.3634 6.97307 22.5634 6.65307 23.9334 6.65307C27.8734 6.65307 29.8334 8.64307 29.8334 12.6331V25.5231C29.8334 25.8931 29.7234 26.0831 29.4934 26.0831H23.8134C23.5934 26.0831 23.4734 25.9431 23.4734 25.6731V14.9831C23.4734 13.0431 22.6834 12.0631 21.1234 12.0631C20.5034 12.0631 19.9534 12.2331 19.4834 12.5631C19.0134 12.9031 18.5834 13.7231 18.5834 14.3531V25.5131C18.5834 25.8831 18.4734 26.0731 18.2434 26.0731H12.5634C12.3434 26.0731 12.2234 25.9331 12.2234 25.6631V14.9731C12.2234 13.0331 11.4434 12.0531 9.8734 12.0531C9.2534 12.0531 8.6934 12.2331 8.1934 12.5931C7.6934 12.9531 7.3334 13.7331 7.3334 14.3531V25.6531C7.3334 25.9231 7.2434 26.0631 7.0734 26.0631H1.2834C1.0834 26.0631 0.983398 25.8931 0.983398 25.5431V7.65307C0.983398 7.35307 1.0734 7.20307 1.2434 7.20307H6.8134C7.0334 7.20307 7.1534 7.35307 7.1534 7.65307V10.2331C7.5534 9.13307 8.2434 8.26307 9.2234 7.61307C10.2034 6.96307 11.3634 6.64307 12.6834 6.64307Z" fill="#242627"/>
<path d="M41.8735 12.8129C40.7035 12.8129 39.7735 13.1829 39.0935 13.9329C38.4035 14.6829 38.0635 15.6429 38.0635 16.8129C38.0635 17.9829 38.4335 18.8529 39.1635 19.5729C39.8935 20.2929 40.8035 20.6529 41.8735 20.6529C42.9435 20.6529 43.8035 20.2829 44.5235 19.5529C45.2435 18.8229 45.6035 17.8729 45.6035 16.7329C45.6035 15.5929 45.2435 14.5829 44.5335 13.8729C43.8235 13.1629 42.9335 12.8029 41.8635 12.8029M45.9435 25.7429V23.3929C45.6435 24.3129 44.9735 25.0529 43.9235 25.5929C42.9735 26.0929 41.8935 26.3429 40.6735 26.3429C38.1035 26.3429 36.0135 25.4829 34.3935 23.7629C32.7035 21.9929 31.8535 19.6129 31.8535 16.6229C31.8535 13.8629 32.7135 11.5429 34.4335 9.67291C36.1035 7.88291 38.1435 6.98291 40.5635 6.98291C41.7635 6.98291 42.8435 7.29291 43.8135 7.91291C44.7135 8.46291 45.3035 9.13291 45.6035 9.93291V7.65291C45.6035 7.35291 45.7035 7.20291 45.9035 7.20291H51.6535C51.8235 7.20291 51.9135 7.31291 51.9135 7.54291V25.5529C51.9135 25.9029 51.8135 26.0729 51.6135 26.0729H46.3035C46.0535 26.0729 45.9335 25.9629 45.9335 25.7329" fill="#242627"/>
<path d="M61.1832 1.4026V14.7926C62.3532 13.1726 64.4432 10.7426 66.6832 7.5026C66.7832 7.3026 66.9332 7.2026 67.1332 7.2026H73.2132C73.5832 7.2026 73.6232 7.4226 73.3232 7.8726L66.9832 15.0326L73.9132 25.6226C74.1132 25.9226 74.0032 26.0726 73.5732 26.0726H67.0032C66.7832 26.0726 66.5632 25.9026 66.3632 25.5526L63.2532 19.1726L61.1732 21.5626V25.6726C61.1732 25.9426 61.0732 26.0826 60.8732 26.0826H55.1232C54.9232 26.0826 54.8232 25.9126 54.8232 25.5626V1.4026C54.8232 1.0826 54.9132 0.912598 55.0832 0.912598H60.8432C61.0632 0.912598 61.1832 1.0726 61.1832 1.4026Z" fill="#242627"/>
<path d="M78.8336 14.8631H85.1536C85.0036 12.7431 83.9436 11.6831 81.9736 11.6831C80.1336 11.6831 79.0836 12.7431 78.8336 14.8631ZM82.5336 6.64307C84.9036 6.64307 86.8836 7.40307 88.4736 8.92307C90.1436 10.5131 90.9736 12.5931 90.9736 15.1631C90.9736 16.1831 90.9036 17.0331 90.7436 17.7031C90.6736 18.0031 90.4236 18.1531 89.9936 18.1531H78.8236C78.8436 19.1531 79.2136 19.9431 79.9036 20.5431C80.6036 21.1431 81.5136 21.4931 82.6336 21.4931C83.9836 21.4931 85.4736 21.2231 86.4536 20.3431C86.6936 20.1431 86.8436 20.1231 87.1136 20.4131C88.2236 21.7931 88.7636 22.2631 89.4836 23.3831C89.6836 23.6831 89.6236 23.9731 89.2936 24.2431C88.6436 24.8131 87.5936 25.4231 86.4736 25.8531C85.1536 26.3231 83.8336 26.5631 82.5136 26.5631C79.6236 26.5631 77.2836 25.6831 75.4836 23.9131C73.6136 22.0731 72.6836 19.5931 72.6836 16.4731C72.6836 13.5831 73.5736 11.2231 75.3536 9.39307C77.1336 7.56307 79.5236 6.64307 82.5136 6.64307" fill="#242627"/>
<path d="M113.503 24.8631C111.983 26.1231 109.873 26.7531 107.183 26.7531C103.043 26.7531 100.323 25.2931 99.0033 22.3831C98.9033 22.0831 98.9433 21.8931 99.1133 21.8231L103.183 20.2531C103.353 20.2031 103.473 20.2531 103.523 20.4031C103.723 20.9731 104.103 21.4531 104.683 21.8431C105.253 22.2331 105.883 22.4231 106.553 22.4231C108.173 22.4231 108.983 21.9231 108.983 20.9331M99.0033 22.3731C98.9033 22.0731 98.9433 21.8831 99.1133 21.8131L103.183 20.2431C103.353 20.1931 103.473 20.2431 103.523 20.3931C103.723 20.9631 104.103 21.4431 104.683 21.8331C105.253 22.2231 105.883 22.4131 106.553 22.4131C108.173 22.4131 108.983 21.9131 108.983 20.9231C108.983 20.4231 108.723 20.0131 108.213 19.6931C107.703 19.3731 106.733 19.0331 105.313 18.6831C103.323 18.1831 101.873 17.5631 100.983 16.8131C99.8633 15.8631 99.3033 14.5231 99.3033 12.7731C99.3033 10.8331 100.053 9.32307 101.543 8.25307C103.043 7.18307 105.093 6.64307 107.713 6.64307C111.803 6.64307 114.253 7.99307 115.073 10.6831C115.123 10.9831 115.063 11.1531 114.883 11.2031L110.733 12.6631C110.563 12.7331 110.423 12.7031 110.323 12.5531C109.603 11.4331 108.653 10.8731 107.483 10.8731C106.083 10.8731 105.393 11.3131 105.393 12.1831C105.393 12.5531 105.663 12.8631 106.213 13.1031C106.763 13.3431 107.843 13.6231 109.463 13.9431C113.673 14.8131 115.773 16.7731 115.773 19.8131C115.773 21.9331 115.013 23.6231 113.493 24.8731C111.973 26.1331 109.863 26.7631 107.173 26.7631C103.033 26.7631 100.313 25.3031 98.9933 22.3931" fill="#242627"/>
<path d="M148.053 14.5934C148.053 12.9534 147.273 12.1234 145.703 12.1234C144.403 12.1234 143.503 12.7234 142.973 13.9134V25.7234C142.973 25.9934 142.883 26.1334 142.713 26.1334H136.923C136.723 26.1334 136.623 25.9634 136.623 25.6134V7.72338C136.623 7.42338 136.713 7.27338 136.883 7.27338H142.373C142.643 7.27338 142.783 7.47338 142.783 7.87338V10.3034C143.153 9.20338 143.863 8.33338 144.893 7.68338C145.923 7.03338 147.163 6.71338 148.613 6.71338C152.473 6.71338 154.403 8.77338 154.403 12.8834V25.5934C154.403 25.9634 154.283 26.1534 154.033 26.1534H148.393C148.173 26.1534 148.053 26.0134 148.053 25.7434V14.6034V14.5934Z" fill="#242627"/>
<path d="M156.144 22.4434C156.044 22.1434 156.084 21.9534 156.254 21.8834L160.324 20.3134C160.494 20.2634 160.614 20.3134 160.664 20.4634C160.864 21.0334 161.244 21.5134 161.824 21.9034C162.394 22.2934 163.024 22.4834 163.694 22.4834C165.314 22.4834 166.124 21.9834 166.124 20.9934C166.124 20.4934 165.864 20.0834 165.354 19.7634C164.844 19.4434 163.874 19.1034 162.454 18.7534C160.464 18.2534 159.014 17.6334 158.124 16.8834C157.004 15.9334 156.444 14.5934 156.444 12.8434C156.444 10.9034 157.194 9.39338 158.684 8.32338C160.184 7.25338 162.234 6.71338 164.854 6.71338C168.944 6.71338 171.394 8.06338 172.214 10.7534C172.264 11.0534 172.204 11.2234 172.024 11.2734L167.874 12.7334C167.704 12.8034 167.564 12.7734 167.464 12.6234C166.744 11.5034 165.794 10.9434 164.624 10.9434C163.224 10.9434 162.534 11.3834 162.534 12.2534C162.534 12.6234 162.804 12.9334 163.354 13.1734C163.904 13.4134 164.984 13.6934 166.604 14.0134C170.814 14.8834 172.914 16.8434 172.914 19.8834C172.914 22.0034 172.154 23.6834 170.634 24.9434C169.114 26.2034 167.004 26.8334 164.314 26.8334C160.174 26.8334 157.454 25.3734 156.134 22.4634" fill="#242627"/>
<path d="M122.863 14.8631C123.113 12.7431 124.163 11.6831 126.003 11.6831C127.973 11.6831 129.033 12.7431 129.183 14.8631H122.863ZM132.503 8.92307C130.913 7.40307 128.923 6.64307 126.563 6.64307C123.573 6.64307 121.193 7.56307 119.403 9.39307C117.623 11.2231 116.733 13.5831 116.733 16.4731C116.733 19.5831 117.663 22.0631 119.533 23.9131C121.323 25.6831 123.663 26.5631 126.563 26.5631C127.883 26.5631 129.203 26.3231 130.523 25.8531C131.133 25.6231 131.733 25.3331 132.243 25.0231C132.753 24.7431 133.243 24.3931 133.703 23.9731C133.913 23.7331 133.953 23.5531 133.823 23.4131L130.683 20.3831C130.543 20.2731 130.423 20.2731 130.313 20.3831C130.263 20.4431 130.203 20.5031 130.153 20.5531C129.173 21.4331 127.473 21.5031 127.143 21.5031C125.723 21.5031 124.643 21.1331 123.943 20.5331C123.243 19.9331 122.883 19.1331 122.863 18.1431H134.033C134.453 18.1431 134.703 17.9931 134.783 17.6931C134.933 17.0231 135.003 16.1731 135.003 15.1531C135.003 12.5831 134.163 10.5031 132.503 8.91307" fill="#242627"/>
<path d="M180.373 14.9334C180.623 12.8134 181.673 11.7534 183.513 11.7534C185.483 11.7534 186.543 12.8134 186.693 14.9334H180.373ZM190.013 8.99338C188.423 7.47338 186.433 6.71338 184.073 6.71338C181.083 6.71338 178.703 7.63338 176.913 9.46338C175.133 11.2934 174.243 13.6534 174.243 16.5434C174.243 19.6534 175.173 22.1334 177.043 23.9834C178.833 25.7534 181.173 26.6334 184.073 26.6334C185.393 26.6334 186.713 26.3934 188.033 25.9234C188.643 25.6934 189.243 25.4034 189.753 25.0934C190.263 24.8134 190.753 24.4634 191.213 24.0434C191.423 23.8034 191.463 23.6234 191.333 23.4834L188.193 20.4534C188.053 20.3434 187.933 20.3434 187.823 20.4534C187.773 20.5134 187.713 20.5734 187.663 20.6234C186.683 21.5034 184.983 21.5734 184.653 21.5734C183.233 21.5734 182.153 21.2034 181.453 20.6034C180.753 20.0034 180.393 19.2034 180.373 18.2134H191.543C191.963 18.2134 192.213 18.0634 192.293 17.7634C192.443 17.0934 192.513 16.2434 192.513 15.2234C192.513 12.6534 191.673 10.5734 190.013 8.98338" fill="#242627"/>
</svg>
