<svg width="116" height="30" viewBox="0 0 116 30" fill="none" xmlns="http://www.w3.org/2000/svg">
<path d="M26.5299 6.12739C28.1682 6.12739 29.4963 4.80382 29.4963 3.17111C29.4963 1.53841 28.1682 0.214844 26.5299 0.214844C24.8916 0.214844 23.5635 1.53841 23.5635 3.17111C23.5635 4.80382 24.8916 6.12739 26.5299 6.12739Z" fill="#242627"/>
<path d="M31.6405 28.9484C29.7958 28.9484 28.1442 28.2402 26.8467 26.8879C22.5085 22.3573 23.3974 11.465 23.6203 9.32552H28.8474C28.4042 13.6489 28.6716 21.2074 30.6525 23.2753C30.9794 23.6158 31.2889 23.7367 31.7618 23.712C32.579 23.6676 34.6144 21.6589 36.469 14.3892C37.821 9.08862 38.3682 3.72144 38.3757 3.66961L38.6134 1.31299H44.0807L44.2243 7.85232C45.1207 6.21132 46.1805 4.7702 47.4359 3.67455C49.3723 1.98666 51.6825 1.20935 54.1166 1.41663C54.5425 1.45118 56.152 1.66093 57.7961 2.94165C59.2793 4.09899 61.1117 6.4112 61.4262 10.8505C61.7877 16.0228 61.6738 28.1761 61.6713 28.6893L56.4194 28.6375C56.4194 28.5117 56.5382 16.1782 56.1891 11.2158C55.9118 7.28229 54.0918 6.71225 53.7055 6.63822H53.6139L53.6758 6.63082H53.6684C52.6507 6.54445 51.7741 6.85785 50.9025 7.61295C48.8077 9.4341 47.0125 13.6662 45.8462 19.5318C44.8954 24.3043 44.6874 28.5067 44.6849 28.5512L39.4354 28.4845L39.2993 22.3968C37.3679 26.6214 34.9784 28.7757 32.0664 28.9361C31.9277 28.9435 31.7891 28.946 31.6529 28.946H31.6479L31.6405 28.9484Z" fill="#242627"/>
<path d="M10.4988 29.3481C8.51048 29.3481 6.75984 29.0224 5.24196 28.3709C3.75131 27.6923 2.56276 26.7299 1.67382 25.4788C0.812116 24.2277 0.302029 22.7298 0.143555 20.9827H5.90804C5.96004 21.7378 6.18289 22.3893 6.57413 22.9371C6.96536 23.4849 7.4903 23.9019 8.14401 24.1882C8.79771 24.4744 9.55542 24.6176 10.4196 24.6176C11.675 24.6176 12.6679 24.3042 13.4009 23.6798C14.1338 23.0555 14.5003 22.1943 14.5003 21.1011C14.5003 20.3189 14.3047 19.6946 13.911 19.2257C13.5197 18.7568 12.97 18.3916 12.2643 18.1301C11.5586 17.8685 10.5781 17.6094 9.32266 17.3478C7.38878 16.9308 5.79166 16.4101 4.53873 15.7833C3.28332 15.1318 2.33 14.2731 1.67629 13.2046C1.02259 12.1361 0.695737 10.806 0.695737 9.21682C0.695737 6.55914 1.55744 4.53812 3.28332 3.15869C5.03396 1.75211 7.36154 1.04883 10.2636 1.04883C12.8512 1.04883 14.9708 1.63613 16.6174 2.80828C18.264 3.98042 19.3115 5.66091 19.7547 7.84973L14.4211 8.98239C14.1858 7.91389 13.7154 7.10696 13.0096 6.55914C12.3039 5.98664 11.3878 5.70039 10.2636 5.70039C9.13942 5.70039 8.2381 5.9743 7.55716 6.52212C6.87622 7.0428 6.53698 7.78557 6.53698 8.75043C6.53698 9.4019 6.70784 9.94972 7.04707 10.3914C7.3863 10.8085 7.87163 11.1465 8.4981 11.4081C9.1518 11.6697 10.0407 11.9165 11.1649 12.1509C13.334 12.5951 15.0871 13.1676 16.4218 13.8709C17.7564 14.5741 18.7494 15.4724 19.4031 16.568C20.0568 17.6365 20.3836 18.9789 20.3836 20.5953C20.3836 23.3566 19.4947 25.5084 17.7168 27.0458C15.9637 28.5831 13.5594 29.353 10.4988 29.353V29.3481Z" fill="#242627"/>
<path d="M96.7486 18.5593H108.946V23.2109H96.7486V18.5593ZM99.2594 1.51758H106.398L115.144 28.8791H109.105L106.554 20.7481V20.0449L104.162 11.445L102.632 5.58183H102.986L101.456 11.445L99.1034 20.0449V20.7481L96.5159 28.8791H90.5137L99.2594 1.51758Z" fill="#242627"/>
<path d="M75.3886 29.3481C73.2715 29.3481 71.3872 28.7608 69.7405 27.5887C68.1186 26.4165 66.8632 24.7755 65.9743 22.6632C65.0854 20.5262 64.6396 18.0758 64.6396 15.3145C64.6396 12.3705 65.1374 9.82883 66.1303 7.69183C67.1232 5.53015 68.5495 3.88668 70.4066 2.76635C72.2637 1.61889 74.4477 1.04639 76.956 1.04639C79.6229 1.04639 81.8984 1.71019 83.7803 3.04027C85.6894 4.37034 86.9845 6.20629 87.6629 8.55058L82.2104 9.99663C81.8192 8.74552 81.1655 7.76832 80.2493 7.06504C79.3331 6.33461 78.2486 5.96939 76.9932 5.96939C75.7378 5.96939 74.5616 6.34695 73.6207 7.10205C72.6797 7.83248 71.9468 8.88618 71.4243 10.2681C70.9266 11.65 70.679 13.3181 70.679 15.2725C70.679 17.1233 70.9142 18.7519 71.3847 20.1585C71.8552 21.5404 72.5485 22.6089 73.4647 23.364C74.4056 24.0944 75.5298 24.4597 76.8372 24.4597C78.0134 24.4597 79.0335 24.1734 79.8977 23.6009C80.7866 23.0013 81.4676 22.1425 81.9381 21.0222C82.4085 19.9019 82.6314 18.5718 82.6041 17.0344L83.2702 18.0511H77.0328V13.634H88.0542V28.8793H83.0325V22.2733H83.7778C83.3074 24.4893 82.3268 26.2216 80.8362 27.4727C79.3455 28.7238 77.528 29.3481 75.3837 29.3481H75.3886Z" fill="#242627"/>
</svg>
